<svg width="38" height="38" viewBox="0 0 38 38" fill="none" xmlns="http://www.w3.org/2000/svg">
<rect x="1.5" y="1.5" width="35" height="35" rx="17.5" fill="#2DDB81"/>
<rect x="1.5" y="1.5" width="35" height="35" rx="17.5" stroke="white" stroke-width="3"/>
<path d="M18.8615 26.179C17.9411 26.179 17.1229 26.0213 16.407 25.706C15.6953 25.3906 15.1328 24.9517 14.7195 24.3892C14.3061 23.8267 14.0866 23.1768 14.0611 22.4396H16.4645C16.4858 22.7933 16.603 23.1023 16.8161 23.3665C17.0291 23.6264 17.3125 23.8288 17.6662 23.9737C18.0199 24.1186 18.4162 24.1911 18.8551 24.1911C19.3239 24.1911 19.7393 24.1101 20.1016 23.9482C20.4638 23.782 20.7472 23.5518 20.9517 23.2578C21.1563 22.9638 21.2564 22.625 21.2521 22.2415C21.2564 21.8452 21.1541 21.4957 20.9453 21.1932C20.7365 20.8906 20.4339 20.6541 20.0376 20.4837C19.6456 20.3132 19.1726 20.228 18.6186 20.228H17.4616V18.3999H18.6186C19.0746 18.3999 19.473 18.321 19.8139 18.1634C20.1591 18.0057 20.4297 17.7841 20.6257 17.4986C20.8217 17.2088 20.9176 16.8743 20.9134 16.495C20.9176 16.1243 20.8345 15.8026 20.6641 15.5298C20.4979 15.2528 20.2614 15.0376 19.9545 14.8842C19.652 14.7308 19.2962 14.6541 18.8871 14.6541C18.4865 14.6541 18.1158 14.7266 17.7749 14.8714C17.4339 15.0163 17.1591 15.223 16.9503 15.4915C16.7415 15.7557 16.6307 16.071 16.6179 16.4375H14.3359C14.353 15.7045 14.5639 15.0611 14.9688 14.5071C15.3778 13.9489 15.9233 13.5142 16.6051 13.2031C17.2869 12.8878 18.0518 12.7301 18.8999 12.7301C19.7734 12.7301 20.532 12.8942 21.1754 13.2223C21.8232 13.5462 22.3239 13.983 22.6776 14.5327C23.0313 15.0824 23.2081 15.6896 23.2081 16.3544C23.2124 17.0916 22.995 17.7095 22.5561 18.2081C22.1214 18.7067 21.5504 19.0327 20.843 19.1861V19.2884C21.7635 19.4162 22.4688 19.7571 22.9588 20.3111C23.4531 20.8608 23.6982 21.5447 23.6939 22.3629C23.6939 23.0959 23.4851 23.7521 23.0675 24.3317C22.6541 24.907 22.0831 25.3587 21.3544 25.6868C20.63 26.0149 19.799 26.179 18.8615 26.179Z" fill="white"/>
</svg>
