<svg width="430" height="356" viewBox="0 0 430 356" fill="none" xmlns="http://www.w3.org/2000/svg">
<path d="M-90 356C-90 261.583 -57.8661 171.033 -0.667516 104.27C56.5311 37.5071 134.109 1.80503e-05 215 1.3332e-05C295.891 8.61363e-06 373.469 37.507 430.668 104.27C487.866 171.033 520 261.583 520 356L434.6 356C434.6 288.02 411.464 222.824 370.281 174.754C329.098 126.685 273.242 99.68 215 99.68C156.759 99.68 100.902 126.685 59.7194 174.754C18.5364 222.824 -4.59996 288.02 -4.59996 356L-90 356Z" fill="url(#paint0_linear_335_12359)"/>
<defs>
<linearGradient id="paint0_linear_335_12359" x1="215" y1="387.984" x2="215" y2="-2.22928e-06" gradientUnits="userSpaceOnUse">
<stop stop-color="#2DDB81"/>
<stop offset="1" stop-color="#030503" stop-opacity="0"/>
</linearGradient>
</defs>
</svg>
