<svg width="1280" height="640" viewBox="0 0 1280 640" fill="none" xmlns="http://www.w3.org/2000/svg">
<path d="M3.30599e-05 640C3.84553e-05 470.261 67.4284 307.475 187.452 187.452C307.475 67.4284 470.261 3.53948e-05 640 2.79753e-05C809.739 2.05558e-05 972.525 67.4284 1092.55 187.452C1212.57 307.475 1280 470.261 1280 640L1100.8 640C1100.8 517.788 1052.25 400.582 965.835 314.165C879.418 227.748 762.212 179.2 640 179.2C517.788 179.2 400.582 227.748 314.165 314.165C227.748 400.582 179.2 517.788 179.2 640L3.30599e-05 640Z" fill="url(#paint0_linear_188_4576)"/>
<defs>
<linearGradient id="paint0_linear_188_4576" x1="640" y1="697.5" x2="640" y2="0" gradientUnits="userSpaceOnUse">
<stop stop-color="#2DDB81"/>
<stop offset="1" stop-color="#030503" stop-opacity="0"/>
</linearGradient>
</defs>
</svg>
