<svg width="347" height="196" viewBox="0 0 347 196" fill="none" xmlns="http://www.w3.org/2000/svg">
<rect x="0.5" y="0.5" width="346" height="195" rx="6.5" fill="#1D1D1D"/>
<rect x="0.5" y="0.5" width="346" height="195" rx="6.5" stroke="#10281B"/>
<path d="M16.7159 34.897V32.9091H27.1605V34.897H23.1143V46H20.7621V34.897H16.7159ZM31.9306 46.1918C30.9718 46.1918 30.1408 45.9808 29.4377 45.5589C28.7346 45.1371 28.1891 44.5469 27.8013 43.7884C27.4178 43.0298 27.226 42.1435 27.226 41.1293C27.226 40.1151 27.4178 39.2266 27.8013 38.4638C28.1891 37.701 28.7346 37.1087 29.4377 36.6868C30.1408 36.2649 30.9718 36.054 31.9306 36.054C32.8894 36.054 33.7203 36.2649 34.4235 36.6868C35.1266 37.1087 35.6699 37.701 36.0534 38.4638C36.4412 39.2266 36.6351 40.1151 36.6351 41.1293C36.6351 42.1435 36.4412 43.0298 36.0534 43.7884C35.6699 44.5469 35.1266 45.1371 34.4235 45.5589C33.7203 45.9808 32.8894 46.1918 31.9306 46.1918ZM31.9434 44.3381C32.4632 44.3381 32.8979 44.1953 33.2473 43.9098C33.5968 43.62 33.8567 43.2322 34.0272 42.7464C34.2019 42.2607 34.2892 41.7195 34.2892 41.1229C34.2892 40.522 34.2019 39.9787 34.0272 39.4929C33.8567 39.0028 33.5968 38.6129 33.2473 38.3232C32.8979 38.0334 32.4632 37.8885 31.9434 37.8885C31.4107 37.8885 30.9675 38.0334 30.6138 38.3232C30.2644 38.6129 30.0023 39.0028 29.8276 39.4929C29.6571 39.9787 29.5719 40.522 29.5719 41.1229C29.5719 41.7195 29.6571 42.2607 29.8276 42.7464C30.0023 43.2322 30.2644 43.62 30.6138 43.9098C30.9675 44.1953 31.4107 44.3381 31.9434 44.3381ZM43.5018 36.1818V37.9716H37.8576V36.1818H43.5018ZM39.2511 33.8295H41.565V43.0469C41.565 43.358 41.6119 43.5966 41.7056 43.7628C41.8036 43.9247 41.9315 44.0355 42.0891 44.0952C42.2468 44.1548 42.4215 44.1847 42.6133 44.1847C42.7582 44.1847 42.8903 44.174 43.0096 44.1527C43.1332 44.1314 43.2269 44.1122 43.2908 44.0952L43.6808 45.9041C43.5572 45.9467 43.3803 45.9936 43.1502 46.0447C42.9244 46.0959 42.6474 46.1257 42.3192 46.1342C41.7397 46.1513 41.2177 46.0639 40.7532 45.8722C40.2887 45.6761 39.9201 45.3736 39.6474 44.9645C39.3789 44.5554 39.2468 44.044 39.2511 43.4304V33.8295ZM48.2623 46.1982C47.6401 46.1982 47.0797 46.0874 46.5811 45.8658C46.0868 45.6399 45.6948 45.3075 45.405 44.8686C45.1195 44.4297 44.9767 43.8885 44.9767 43.245C44.9767 42.6911 45.079 42.233 45.2836 41.8707C45.4881 41.5085 45.7672 41.2188 46.1209 41.0014C46.4746 40.7841 46.873 40.62 47.3162 40.5092C47.7637 40.3942 48.226 40.3111 48.7033 40.2599C49.2786 40.2003 49.7452 40.147 50.1032 40.1001C50.4611 40.049 50.7211 39.9723 50.883 39.87C51.0492 39.7635 51.1323 39.5994 51.1323 39.3778V39.3395C51.1323 38.858 50.9895 38.4851 50.704 38.2209C50.4185 37.9567 50.0073 37.8246 49.4703 37.8246C48.9036 37.8246 48.454 37.9482 48.1216 38.1953C47.7935 38.4425 47.5719 38.7344 47.4569 39.071L45.2963 38.7642C45.4668 38.1676 45.748 37.669 46.1401 37.2685C46.5321 36.8636 47.0115 36.5611 47.5783 36.3608C48.1451 36.1562 48.7715 36.054 49.4576 36.054C49.9306 36.054 50.4015 36.1094 50.8702 36.2202C51.339 36.331 51.7672 36.5142 52.155 36.7699C52.5428 37.0213 52.8539 37.3643 53.0882 37.799C53.3269 38.2337 53.4462 38.777 53.4462 39.429V46H51.2218V44.6513H51.1451C51.0044 44.924 50.8063 45.1797 50.5506 45.4183C50.2992 45.6527 49.9817 45.8423 49.5982 45.9872C49.2189 46.1278 48.7736 46.1982 48.2623 46.1982ZM48.8631 44.4979C49.3276 44.4979 49.7303 44.4062 50.0712 44.223C50.4121 44.0355 50.6742 43.7884 50.8574 43.4815C51.0449 43.1747 51.1387 42.8402 51.1387 42.478V41.321C51.0662 41.3807 50.9426 41.4361 50.7679 41.4872C50.5975 41.5384 50.4057 41.5831 50.1926 41.6214C49.9796 41.6598 49.7686 41.6939 49.5598 41.7237C49.351 41.7536 49.1699 41.7791 49.0165 41.8004C48.6713 41.8473 48.3624 41.924 48.0897 42.0305C47.8169 42.1371 47.6017 42.2862 47.4441 42.478C47.2864 42.6655 47.2076 42.9084 47.2076 43.2067C47.2076 43.6328 47.3631 43.9545 47.6742 44.1719C47.9853 44.3892 48.3816 44.4979 48.8631 44.4979ZM58.0868 32.9091V46H55.7729V32.9091H58.0868ZM65.0334 46V32.9091H73.5476V34.897H67.4048V38.451H73.1065V40.4389H67.4048V44.0121H73.5987V46H65.0334ZM78.69 46.1982C78.0678 46.1982 77.5075 46.0874 77.0089 45.8658C76.5146 45.6399 76.1225 45.3075 75.8327 44.8686C75.5472 44.4297 75.4045 43.8885 75.4045 43.245C75.4045 42.6911 75.5067 42.233 75.7113 41.8707C75.9158 41.5085 76.195 41.2188 76.5487 41.0014C76.9023 40.7841 77.3008 40.62 77.744 40.5092C78.1914 40.3942 78.6538 40.3111 79.131 40.2599C79.7063 40.2003 80.1729 40.147 80.5309 40.1001C80.8888 40.049 81.1488 39.9723 81.3107 39.87C81.4769 39.7635 81.56 39.5994 81.56 39.3778V39.3395C81.56 38.858 81.4173 38.4851 81.1317 38.2209C80.8462 37.9567 80.435 37.8246 79.8981 37.8246C79.3313 37.8246 78.8817 37.9482 78.5494 38.1953C78.2212 38.4425 77.9996 38.7344 77.8846 39.071L75.7241 38.7642C75.8945 38.1676 76.1758 37.669 76.5678 37.2685C76.9599 36.8636 77.4393 36.5611 78.006 36.3608C78.5728 36.1562 79.1992 36.054 79.8853 36.054C80.3583 36.054 80.8292 36.1094 81.2979 36.2202C81.7667 36.331 82.195 36.5142 82.5827 36.7699C82.9705 37.0213 83.2816 37.3643 83.516 37.799C83.7546 38.2337 83.8739 38.777 83.8739 39.429V46H81.6495V44.6513H81.5728C81.4322 44.924 81.234 45.1797 80.9783 45.4183C80.7269 45.6527 80.4094 45.8423 80.0259 45.9872C79.6467 46.1278 79.2013 46.1982 78.69 46.1982ZM79.2908 44.4979C79.7553 44.4979 80.158 44.4062 80.4989 44.223C80.8398 44.0355 81.1019 43.7884 81.2852 43.4815C81.4727 43.1747 81.5664 42.8402 81.5664 42.478V41.321C81.494 41.3807 81.3704 41.4361 81.1957 41.4872C81.0252 41.5384 80.8335 41.5831 80.6204 41.6214C80.4073 41.6598 80.1964 41.6939 79.9876 41.7237C79.7788 41.7536 79.5977 41.7791 79.4442 41.8004C79.0991 41.8473 78.7901 41.924 78.5174 42.0305C78.2447 42.1371 78.0295 42.2862 77.8718 42.478C77.7141 42.6655 77.6353 42.9084 77.6353 43.2067C77.6353 43.6328 77.7908 43.9545 78.1019 44.1719C78.413 44.3892 78.8093 44.4979 79.2908 44.4979ZM86.2006 46V36.1818H88.4442V37.8182H88.5465C88.7255 37.2514 89.0323 36.8146 89.467 36.5078C89.9059 36.1967 90.4066 36.0412 90.9691 36.0412C91.0969 36.0412 91.2397 36.0476 91.3974 36.0604C91.5593 36.0689 91.6935 36.0838 91.8001 36.1051V38.2337C91.7021 38.1996 91.5465 38.1697 91.3335 38.1442C91.1246 38.1143 90.9222 38.0994 90.7262 38.0994C90.3043 38.0994 89.9251 38.1911 89.5884 38.3743C89.256 38.5533 88.994 38.8026 88.8022 39.1222C88.6104 39.4418 88.5146 39.8104 88.5146 40.228V46H86.2006ZM95.6513 40.2472V46H93.3374V36.1818H95.549V37.8501H95.6641C95.8899 37.3004 96.25 36.8636 96.7443 36.5398C97.2429 36.2159 97.8587 36.054 98.5916 36.054C99.2692 36.054 99.8594 36.1989 100.362 36.4886C100.869 36.7784 101.261 37.1982 101.538 37.7479C101.82 38.2976 101.958 38.9645 101.954 39.7486V46H99.6399V40.1065C99.6399 39.4503 99.4695 38.9368 99.1286 38.5661C98.7919 38.1953 98.3253 38.0099 97.7287 38.0099C97.3239 38.0099 96.9638 38.0994 96.6484 38.2784C96.3374 38.4531 96.0923 38.7067 95.9134 39.0391C95.7386 39.3714 95.6513 39.7741 95.6513 40.2472ZM104.306 46V36.1818H106.62V46H104.306ZM105.469 34.7884C105.103 34.7884 104.788 34.6669 104.523 34.424C104.259 34.1768 104.127 33.8807 104.127 33.5355C104.127 33.1861 104.259 32.8899 104.523 32.647C104.788 32.3999 105.103 32.2763 105.469 32.2763C105.84 32.2763 106.156 32.3999 106.415 32.647C106.68 32.8899 106.812 33.1861 106.812 33.5355C106.812 33.8807 106.68 34.1768 106.415 34.424C106.156 34.6669 105.84 34.7884 105.469 34.7884ZM111.313 40.2472V46H108.999V36.1818H111.211V37.8501H111.326C111.552 37.3004 111.912 36.8636 112.406 36.5398C112.905 36.2159 113.521 36.054 114.254 36.054C114.931 36.054 115.521 36.1989 116.024 36.4886C116.531 36.7784 116.923 37.1982 117.2 37.7479C117.482 38.2976 117.62 38.9645 117.616 39.7486V46H115.302V40.1065C115.302 39.4503 115.132 38.9368 114.791 38.5661C114.454 38.1953 113.987 38.0099 113.391 38.0099C112.986 38.0099 112.626 38.0994 112.311 38.2784C111.999 38.4531 111.754 38.7067 111.575 39.0391C111.401 39.3714 111.313 39.7741 111.313 40.2472ZM124.238 49.8864C123.407 49.8864 122.693 49.7734 122.097 49.5476C121.5 49.326 121.021 49.0277 120.659 48.6527C120.296 48.2777 120.045 47.8622 119.904 47.4062L121.988 46.9013C122.082 47.093 122.218 47.2827 122.397 47.4702C122.576 47.6619 122.817 47.8196 123.119 47.9432C123.426 48.071 123.812 48.1349 124.276 48.1349C124.933 48.1349 125.476 47.9751 125.906 47.6555C126.337 47.3402 126.552 46.8203 126.552 46.0959V44.2358H126.437C126.318 44.4744 126.143 44.7195 125.913 44.9709C125.687 45.2223 125.387 45.4332 125.012 45.6037C124.641 45.7741 124.174 45.8594 123.612 45.8594C122.857 45.8594 122.173 45.6825 121.56 45.3288C120.95 44.9709 120.465 44.4382 120.102 43.7308C119.744 43.0192 119.566 42.1286 119.566 41.0589C119.566 39.9808 119.744 39.071 120.102 38.3295C120.465 37.5838 120.953 37.0192 121.566 36.6357C122.18 36.2479 122.864 36.054 123.618 36.054C124.193 36.054 124.666 36.152 125.037 36.348C125.412 36.5398 125.71 36.772 125.932 37.0447C126.154 37.3132 126.322 37.5668 126.437 37.8054H126.565V36.1818H128.847V46.1598C128.847 46.9993 128.646 47.6939 128.246 48.2436C127.845 48.7933 127.298 49.2045 126.603 49.4773C125.909 49.75 125.12 49.8864 124.238 49.8864ZM124.257 44.044C124.747 44.044 125.165 43.9247 125.51 43.6861C125.855 43.4474 126.117 43.1044 126.296 42.657C126.475 42.2095 126.565 41.6726 126.565 41.0462C126.565 40.4283 126.475 39.8871 126.296 39.4226C126.122 38.9581 125.862 38.598 125.517 38.3423C125.176 38.0824 124.756 37.9524 124.257 37.9524C123.742 37.9524 123.311 38.0866 122.966 38.3551C122.621 38.6236 122.361 38.9922 122.186 39.4609C122.012 39.9254 121.924 40.4538 121.924 41.0462C121.924 41.647 122.012 42.1733 122.186 42.625C122.365 43.0724 122.627 43.4219 122.972 43.6733C123.322 43.9205 123.75 44.044 124.257 44.044ZM138.978 38.777L136.869 39.0071C136.809 38.794 136.705 38.5938 136.556 38.4062C136.411 38.2188 136.215 38.0675 135.968 37.9524C135.72 37.8374 135.418 37.7798 135.06 37.7798C134.578 37.7798 134.173 37.8842 133.845 38.093C133.521 38.3018 133.362 38.5724 133.366 38.9048C133.362 39.1903 133.466 39.4226 133.679 39.6016C133.896 39.7805 134.254 39.9276 134.753 40.0426L136.428 40.4006C137.357 40.6009 138.047 40.9183 138.499 41.353C138.955 41.7876 139.185 42.3565 139.189 43.0597C139.185 43.6776 139.004 44.223 138.646 44.696C138.292 45.1648 137.8 45.5312 137.169 45.7955C136.539 46.0597 135.814 46.1918 134.996 46.1918C133.794 46.1918 132.827 45.9403 132.094 45.4375C131.361 44.9304 130.924 44.2251 130.784 43.3217L133.04 43.1044C133.142 43.5476 133.36 43.8821 133.692 44.108C134.024 44.3338 134.457 44.4467 134.99 44.4467C135.539 44.4467 135.98 44.3338 136.313 44.108C136.649 43.8821 136.818 43.603 136.818 43.2706C136.818 42.9893 136.709 42.7571 136.492 42.5739C136.279 42.3906 135.946 42.25 135.494 42.152L133.82 41.8004C132.878 41.6044 132.181 41.2741 131.73 40.8097C131.278 40.3409 131.054 39.7486 131.058 39.0327C131.054 38.4276 131.218 37.9034 131.551 37.4602C131.887 37.0128 132.354 36.6676 132.95 36.4247C133.551 36.1776 134.244 36.054 135.028 36.054C136.178 36.054 137.084 36.299 137.744 36.7891C138.409 37.2791 138.82 37.9418 138.978 38.777Z" fill="white"/>
<g filter="url(#filter0_d_181_3656)">
<rect x="216.25" y="20.25" width="114.5" height="37.5" rx="7.75" stroke="white" stroke-opacity="0.35" stroke-width="0.5"/>
<path d="M238.697 43L236.234 34.2727H237.935L239.507 40.6861H239.588L241.267 34.2727H242.814L244.497 40.6903H244.574L246.146 34.2727H247.847L245.384 43H243.824L242.077 36.8764H242.009L240.257 43H238.697ZM251.104 43.1278C250.448 43.1278 249.881 42.9915 249.404 42.7188C248.93 42.4432 248.565 42.054 248.309 41.5511C248.053 41.0455 247.925 40.4503 247.925 39.7656C247.925 39.0923 248.053 38.5014 248.309 37.9929C248.567 37.4815 248.928 37.0838 249.391 36.7997C249.854 36.5128 250.398 36.3693 251.023 36.3693C251.427 36.3693 251.808 36.4347 252.165 36.5653C252.526 36.6932 252.844 36.892 253.12 37.1619C253.398 37.4318 253.617 37.7756 253.776 38.1932C253.935 38.608 254.015 39.1023 254.015 39.6761V40.1491H248.65V39.1094H252.536C252.533 38.8139 252.469 38.5511 252.344 38.321C252.219 38.0881 252.045 37.9048 251.82 37.7713C251.599 37.6378 251.34 37.571 251.045 37.571C250.729 37.571 250.452 37.6477 250.214 37.8011C249.975 37.9517 249.789 38.1506 249.656 38.3977C249.525 38.642 249.458 38.9105 249.455 39.2031V40.1108C249.455 40.4915 249.525 40.8182 249.664 41.0909C249.803 41.3608 249.998 41.5682 250.248 41.7131C250.498 41.8551 250.79 41.9261 251.126 41.9261C251.35 41.9261 251.553 41.8949 251.735 41.8324C251.917 41.767 252.075 41.6719 252.208 41.5469C252.342 41.4219 252.442 41.267 252.511 41.0824L253.951 41.2443C253.86 41.625 253.687 41.9574 253.431 42.2415C253.178 42.5227 252.854 42.7415 252.46 42.8977C252.065 43.0511 251.613 43.1278 251.104 43.1278ZM258.218 43.1278C257.561 43.1278 256.995 42.9915 256.517 42.7188C256.043 42.4432 255.678 42.054 255.422 41.5511C255.167 41.0455 255.039 40.4503 255.039 39.7656C255.039 39.0923 255.167 38.5014 255.422 37.9929C255.681 37.4815 256.042 37.0838 256.505 36.7997C256.968 36.5128 257.512 36.3693 258.137 36.3693C258.54 36.3693 258.921 36.4347 259.279 36.5653C259.64 36.6932 259.958 36.892 260.233 37.1619C260.512 37.4318 260.73 37.7756 260.89 38.1932C261.049 38.608 261.128 39.1023 261.128 39.6761V40.1491H255.763V39.1094H259.65C259.647 38.8139 259.583 38.5511 259.458 38.321C259.333 38.0881 259.158 37.9048 258.934 37.7713C258.712 37.6378 258.453 37.571 258.158 37.571C257.843 37.571 257.566 37.6477 257.327 37.8011C257.088 37.9517 256.902 38.1506 256.769 38.3977C256.638 38.642 256.571 38.9105 256.569 39.2031V40.1108C256.569 40.4915 256.638 40.8182 256.777 41.0909C256.917 41.3608 257.111 41.5682 257.361 41.7131C257.611 41.8551 257.904 41.9261 258.239 41.9261C258.463 41.9261 258.667 41.8949 258.848 41.8324C259.03 41.767 259.188 41.6719 259.321 41.5469C259.455 41.4219 259.556 41.267 259.624 41.0824L261.064 41.2443C260.973 41.625 260.8 41.9574 260.544 42.2415C260.292 42.5227 259.968 42.7415 259.573 42.8977C259.178 43.0511 258.726 43.1278 258.218 43.1278ZM263.839 40.946L263.835 39.0838H264.082L266.435 36.4545H268.237L265.344 39.6761H265.024L263.839 40.946ZM262.433 43V34.2727H263.976V43H262.433ZM266.541 43L264.411 40.0213L265.45 38.9347L268.386 43H266.541ZM270.808 34.2727V43H269.265V34.2727H270.808ZM273.353 45.4545C273.143 45.4545 272.948 45.4375 272.769 45.4034C272.593 45.3722 272.452 45.3352 272.347 45.2926L272.705 44.0909C272.93 44.1563 273.13 44.1875 273.306 44.1847C273.482 44.1818 273.637 44.1264 273.771 44.0185C273.907 43.9134 274.022 43.7372 274.116 43.4901L274.248 43.1364L271.874 36.4545H273.511L275.019 41.3977H275.087L276.6 36.4545H278.241L275.62 43.7926C275.498 44.1392 275.336 44.4361 275.134 44.6832C274.933 44.9332 274.685 45.1236 274.393 45.2543C274.103 45.3878 273.756 45.4545 273.353 45.4545ZM283.521 34.2727L285.792 41.142H285.881L288.148 34.2727H289.887L286.81 43H284.859L281.786 34.2727H283.521ZM290.968 43V36.4545H292.511V43H290.968ZM291.744 35.5256C291.5 35.5256 291.289 35.4446 291.113 35.2827C290.937 35.1179 290.849 34.9205 290.849 34.6903C290.849 34.4574 290.937 34.2599 291.113 34.098C291.289 33.9332 291.5 33.8509 291.744 33.8509C291.991 33.8509 292.201 33.9332 292.375 34.098C292.551 34.2599 292.639 34.4574 292.639 34.6903C292.639 34.9205 292.551 35.1179 292.375 35.2827C292.201 35.4446 291.991 35.5256 291.744 35.5256ZM296.995 43.1278C296.339 43.1278 295.772 42.9915 295.295 42.7188C294.82 42.4432 294.455 42.054 294.2 41.5511C293.944 41.0455 293.816 40.4503 293.816 39.7656C293.816 39.0923 293.944 38.5014 294.2 37.9929C294.458 37.4815 294.819 37.0838 295.282 36.7997C295.745 36.5128 296.289 36.3693 296.914 36.3693C297.317 36.3693 297.698 36.4347 298.056 36.5653C298.417 36.6932 298.735 36.892 299.011 37.1619C299.289 37.4318 299.508 37.7756 299.667 38.1932C299.826 38.608 299.906 39.1023 299.906 39.6761V40.1491H294.54V39.1094H298.427C298.424 38.8139 298.36 38.5511 298.235 38.321C298.11 38.0881 297.935 37.9048 297.711 37.7713C297.489 37.6378 297.231 37.571 296.935 37.571C296.62 37.571 296.343 37.6477 296.104 37.8011C295.866 37.9517 295.68 38.1506 295.546 38.3977C295.415 38.642 295.349 38.9105 295.346 39.2031V40.1108C295.346 40.4915 295.415 40.8182 295.555 41.0909C295.694 41.3608 295.888 41.5682 296.138 41.7131C296.388 41.8551 296.681 41.9261 297.016 41.9261C297.241 41.9261 297.444 41.8949 297.626 41.8324C297.808 41.767 297.965 41.6719 298.099 41.5469C298.232 41.4219 298.333 41.267 298.401 41.0824L299.842 41.2443C299.751 41.625 299.577 41.9574 299.322 42.2415C299.069 42.5227 298.745 42.7415 298.35 42.8977C297.955 43.0511 297.504 43.1278 296.995 43.1278ZM302.526 43L300.677 36.4545H302.249L303.4 41.0568H303.46L304.636 36.4545H306.191L307.367 41.0312H307.431L308.565 36.4545H310.141L308.288 43H306.681L305.454 38.5767H305.364L304.137 43H302.526Z" fill="#28A263"/>
</g>
<path d="M23.1761 104.182V82.3636H24.5739V104.182H23.1761ZM27.2074 89.3438C27.1278 88.5994 26.7926 88.0199 26.2017 87.6051C25.6165 87.1903 24.8551 86.983 23.9176 86.983C23.2585 86.983 22.6932 87.0824 22.2216 87.2812C21.75 87.4801 21.3892 87.75 21.1392 88.0909C20.8892 88.4318 20.7614 88.821 20.7557 89.2585C20.7557 89.6222 20.8381 89.9375 21.0028 90.2045C21.1733 90.4716 21.4034 90.6989 21.6932 90.8864C21.983 91.0682 22.304 91.2216 22.6562 91.3466C23.0085 91.4716 23.3636 91.5767 23.7216 91.6619L25.358 92.071C26.017 92.2244 26.6506 92.4318 27.2585 92.6932C27.8722 92.9545 28.4205 93.2841 28.9034 93.6818C29.392 94.0795 29.7784 94.5597 30.0625 95.1222C30.3466 95.6847 30.4886 96.3437 30.4886 97.0994C30.4886 98.1222 30.2273 99.0227 29.7045 99.8011C29.1818 100.574 28.4261 101.179 27.4375 101.616C26.4545 102.048 25.2642 102.264 23.8665 102.264C22.5085 102.264 21.3295 102.054 20.3295 101.634C19.3352 101.213 18.5568 100.599 17.9943 99.7926C17.4375 98.9858 17.1364 98.0028 17.0909 96.8438H20.2017C20.2472 97.4517 20.4347 97.9574 20.7642 98.3608C21.0938 98.7642 21.5227 99.0653 22.0511 99.2642C22.5852 99.4631 23.1818 99.5625 23.8409 99.5625C24.5284 99.5625 25.1307 99.4602 25.6477 99.2557C26.1705 99.0455 26.5795 98.7557 26.875 98.3864C27.1705 98.0114 27.321 97.5739 27.3267 97.0739C27.321 96.6193 27.1875 96.2443 26.9261 95.9489C26.6648 95.6477 26.2983 95.3977 25.8267 95.1989C25.3608 94.9943 24.8153 94.8125 24.1903 94.6534L22.2045 94.142C20.767 93.7727 19.6307 93.2131 18.7955 92.4631C17.9659 91.7074 17.5511 90.7045 17.5511 89.4545C17.5511 88.4261 17.8295 87.5256 18.3864 86.7528C18.9489 85.9801 19.7131 85.3807 20.679 84.9545C21.6449 84.5227 22.7386 84.3068 23.9602 84.3068C25.1989 84.3068 26.2841 84.5227 27.2159 84.9545C28.1534 85.3807 28.8892 85.9744 29.4233 86.7358C29.9574 87.4915 30.233 88.3608 30.25 89.3438H27.2074ZM40.2365 84.5455V102H37.0746V87.6222H36.9723L32.8899 90.2301V87.3324L37.228 84.5455H40.2365ZM51.12 102.332C49.7166 102.332 48.5121 101.977 47.5064 101.267C46.5064 100.551 45.7365 99.5199 45.1967 98.1733C44.6626 96.821 44.3956 95.1932 44.3956 93.2898C44.4013 91.3864 44.6712 89.767 45.2053 88.4318C45.745 87.0909 46.5149 86.0682 47.5149 85.3636C48.5206 84.6591 49.7223 84.3068 51.12 84.3068C52.5178 84.3068 53.7195 84.6591 54.7251 85.3636C55.7308 86.0682 56.5007 87.0909 57.0348 88.4318C57.5746 89.7727 57.8445 91.392 57.8445 93.2898C57.8445 95.1989 57.5746 96.8295 57.0348 98.1818C56.5007 99.5284 55.7308 100.557 54.7251 101.267C53.7251 101.977 52.5234 102.332 51.12 102.332ZM51.12 99.6648C52.2109 99.6648 53.0717 99.1278 53.7024 98.054C54.3388 96.9744 54.657 95.3864 54.657 93.2898C54.657 91.9034 54.5121 90.7386 54.2223 89.7955C53.9325 88.8523 53.5234 88.142 52.995 87.6648C52.4666 87.1818 51.8416 86.9403 51.12 86.9403C50.0348 86.9403 49.1768 87.4801 48.5462 88.5597C47.9155 89.6335 47.5973 91.2102 47.5916 93.2898C47.5859 94.6818 47.7251 95.8523 48.0092 96.8011C48.299 97.75 48.7081 98.4659 49.2365 98.9489C49.7649 99.4261 50.3928 99.6648 51.12 99.6648ZM60.8466 102L68.2699 87.3068V87.1875H59.6534V84.5455H71.5426V87.2472L64.1278 102H60.8466ZM74.9496 99.6136L74.8388 100.551C74.7592 101.267 74.6172 101.994 74.4126 102.733C74.2138 103.477 74.0036 104.162 73.782 104.787C73.5604 105.412 73.3814 105.903 73.245 106.261H71.1655C71.245 105.915 71.353 105.443 71.4893 104.847C71.6314 104.25 71.7678 103.58 71.8984 102.835C72.0291 102.091 72.1172 101.335 72.1626 100.568L72.2223 99.6136H74.9496ZM83.9197 102.239C82.6527 102.239 81.5277 102.026 80.5447 101.599C79.5675 101.173 78.8004 100.591 78.2436 99.8523C77.6925 99.108 77.4197 98.2642 77.4254 97.321C77.4197 96.5881 77.5788 95.9148 77.9027 95.3011C78.2266 94.6875 78.6641 94.1761 79.2152 93.767C79.772 93.3523 80.3913 93.0881 81.0732 92.9744V92.8551C80.1754 92.6562 79.4482 92.1989 78.8913 91.483C78.3402 90.7614 78.0675 89.929 78.0732 88.9858C78.0675 88.0881 78.3175 87.2869 78.8232 86.5824C79.3288 85.8778 80.022 85.3239 80.9027 84.9205C81.7834 84.5114 82.7891 84.3068 83.9197 84.3068C85.0391 84.3068 86.0362 84.5114 86.9112 84.9205C87.7919 85.3239 88.4851 85.8778 88.9908 86.5824C89.5021 87.2869 89.7578 88.0881 89.7578 88.9858C89.7578 89.929 89.4766 90.7614 88.9141 91.483C88.3572 92.1989 87.6385 92.6562 86.7578 92.8551V92.9744C87.4396 93.0881 88.0533 93.3523 88.5987 93.767C89.1499 94.1761 89.5874 94.6875 89.9112 95.3011C90.2408 95.9148 90.4055 96.5881 90.4055 97.321C90.4055 98.2642 90.1271 99.108 89.5703 99.8523C89.0135 100.591 88.2464 101.173 87.2692 101.599C86.2976 102.026 85.1811 102.239 83.9197 102.239ZM83.9197 99.8011C84.5732 99.8011 85.1413 99.6903 85.6243 99.4688C86.1072 99.2415 86.4822 98.9233 86.7493 98.5142C87.0163 98.1051 87.1527 97.6335 87.1584 97.0994C87.1527 96.5426 87.0078 96.0511 86.7237 95.625C86.4453 95.1932 86.0618 94.8551 85.5732 94.6108C85.0902 94.3665 84.5391 94.2443 83.9197 94.2443C83.2947 94.2443 82.7379 94.3665 82.2493 94.6108C81.7607 94.8551 81.3743 95.1932 81.0902 95.625C80.8118 96.0511 80.6754 96.5426 80.6811 97.0994C80.6754 97.6335 80.8061 98.1051 81.0732 98.5142C81.3402 98.9176 81.7152 99.233 82.1982 99.4602C82.6868 99.6875 83.2607 99.8011 83.9197 99.8011ZM83.9197 91.8494C84.4538 91.8494 84.9254 91.7415 85.3345 91.5256C85.7493 91.3097 86.076 91.0085 86.3146 90.6222C86.5533 90.2358 86.6754 89.7898 86.6811 89.2841C86.6754 88.7841 86.5561 88.3466 86.3232 87.9716C86.0902 87.5909 85.7663 87.2983 85.3516 87.0938C84.9368 86.8835 84.4595 86.7784 83.9197 86.7784C83.3686 86.7784 82.8828 86.8835 82.4624 87.0938C82.0476 87.2983 81.7237 87.5909 81.4908 87.9716C81.2635 88.3466 81.1527 88.7841 81.1584 89.2841C81.1527 89.7898 81.2663 90.2358 81.4993 90.6222C81.7379 91.0028 82.0646 91.304 82.4794 91.5256C82.8999 91.7415 83.38 91.8494 83.9197 91.8494ZM92.892 98.7614V96.2472L100.298 84.5455H102.395V88.125H101.116L96.1307 96.0256V96.1619H106.469V98.7614H92.892ZM101.219 102V97.9943L101.253 96.8693V84.5455H104.236V102H101.219ZM115.456 102.239C114.229 102.239 113.138 102.028 112.183 101.608C111.234 101.187 110.484 100.602 109.933 99.8523C109.382 99.1023 109.089 98.2358 109.055 97.2528H112.26C112.288 97.7244 112.445 98.1364 112.729 98.4886C113.013 98.8352 113.391 99.1051 113.862 99.2983C114.334 99.4915 114.862 99.5881 115.447 99.5881C116.072 99.5881 116.626 99.4801 117.109 99.2642C117.592 99.0426 117.97 98.7358 118.243 98.3438C118.516 97.9517 118.649 97.5 118.643 96.9886C118.649 96.4602 118.513 95.9943 118.234 95.5909C117.956 95.1875 117.553 94.8722 117.024 94.6449C116.501 94.4176 115.871 94.304 115.132 94.304H113.589V91.8665H115.132C115.74 91.8665 116.271 91.7614 116.726 91.5511C117.186 91.3409 117.547 91.0455 117.808 90.6648C118.07 90.2784 118.197 89.8324 118.192 89.3267C118.197 88.8324 118.087 88.4034 117.859 88.0398C117.638 87.6705 117.322 87.3835 116.913 87.179C116.51 86.9744 116.036 86.8722 115.49 86.8722C114.956 86.8722 114.462 86.9687 114.007 87.1619C113.553 87.3551 113.186 87.6307 112.908 87.9886C112.629 88.3409 112.482 88.7614 112.464 89.25H109.422C109.445 88.2727 109.726 87.4148 110.266 86.6761C110.811 85.9318 111.538 85.3523 112.447 84.9375C113.357 84.517 114.376 84.3068 115.507 84.3068C116.672 84.3068 117.683 84.5256 118.541 84.9631C119.405 85.3949 120.072 85.9773 120.544 86.7102C121.016 87.4432 121.251 88.2528 121.251 89.1392C121.257 90.1222 120.967 90.946 120.382 91.6108C119.803 92.2756 119.041 92.7102 118.098 92.9148V93.0511C119.325 93.2216 120.266 93.6761 120.919 94.4148C121.578 95.1477 121.905 96.0597 121.899 97.1506C121.899 98.1278 121.621 99.0028 121.064 99.7756C120.513 100.543 119.751 101.145 118.78 101.582C117.814 102.02 116.706 102.239 115.456 102.239ZM126.244 102.188C125.727 102.188 125.283 102.006 124.914 101.642C124.545 101.278 124.363 100.835 124.369 100.312C124.363 99.8011 124.545 99.3636 124.914 99C125.283 98.6364 125.727 98.4545 126.244 98.4545C126.744 98.4545 127.178 98.6364 127.548 99C127.923 99.3636 128.113 99.8011 128.119 100.312C128.113 100.659 128.022 100.974 127.846 101.259C127.675 101.543 127.448 101.77 127.164 101.94C126.886 102.105 126.579 102.188 126.244 102.188ZM136.818 102.239C135.551 102.239 134.426 102.026 133.443 101.599C132.466 101.173 131.699 100.591 131.142 99.8523C130.591 99.108 130.318 98.2642 130.324 97.321C130.318 96.5881 130.477 95.9148 130.801 95.3011C131.125 94.6875 131.563 94.1761 132.114 93.767C132.67 93.3523 133.29 93.0881 133.972 92.9744V92.8551C133.074 92.6562 132.347 92.1989 131.79 91.483C131.239 90.7614 130.966 89.929 130.972 88.9858C130.966 88.0881 131.216 87.2869 131.722 86.5824C132.227 85.8778 132.92 85.3239 133.801 84.9205C134.682 84.5114 135.688 84.3068 136.818 84.3068C137.938 84.3068 138.935 84.5114 139.81 84.9205C140.69 85.3239 141.384 85.8778 141.889 86.5824C142.401 87.2869 142.656 88.0881 142.656 88.9858C142.656 89.929 142.375 90.7614 141.812 91.483C141.256 92.1989 140.537 92.6562 139.656 92.8551V92.9744C140.338 93.0881 140.952 93.3523 141.497 93.767C142.048 94.1761 142.486 94.6875 142.81 95.3011C143.139 95.9148 143.304 96.5881 143.304 97.321C143.304 98.2642 143.026 99.108 142.469 99.8523C141.912 100.591 141.145 101.173 140.168 101.599C139.196 102.026 138.08 102.239 136.818 102.239ZM136.818 99.8011C137.472 99.8011 138.04 99.6903 138.523 99.4688C139.006 99.2415 139.381 98.9233 139.648 98.5142C139.915 98.1051 140.051 97.6335 140.057 97.0994C140.051 96.5426 139.906 96.0511 139.622 95.625C139.344 95.1932 138.96 94.8551 138.472 94.6108C137.989 94.3665 137.438 94.2443 136.818 94.2443C136.193 94.2443 135.636 94.3665 135.148 94.6108C134.659 94.8551 134.273 95.1932 133.989 95.625C133.71 96.0511 133.574 96.5426 133.58 97.0994C133.574 97.6335 133.705 98.1051 133.972 98.5142C134.239 98.9176 134.614 99.233 135.097 99.4602C135.585 99.6875 136.159 99.8011 136.818 99.8011ZM136.818 91.8494C137.352 91.8494 137.824 91.7415 138.233 91.5256C138.648 91.3097 138.974 91.0085 139.213 90.6222C139.452 90.2358 139.574 89.7898 139.58 89.2841C139.574 88.7841 139.455 88.3466 139.222 87.9716C138.989 87.5909 138.665 87.2983 138.25 87.0938C137.835 86.8835 137.358 86.7784 136.818 86.7784C136.267 86.7784 135.781 86.8835 135.361 87.0938C134.946 87.2983 134.622 87.5909 134.389 87.9716C134.162 88.3466 134.051 88.7841 134.057 89.2841C134.051 89.7898 134.165 90.2358 134.398 90.6222C134.636 91.0028 134.963 91.304 135.378 91.5256C135.798 91.7415 136.278 91.8494 136.818 91.8494ZM146.106 102V99.7159L152.165 93.7756C152.745 93.1903 153.228 92.6705 153.614 92.2159C154.001 91.7614 154.29 91.321 154.484 90.8949C154.677 90.4687 154.773 90.0142 154.773 89.5312C154.773 88.9801 154.648 88.5085 154.398 88.1165C154.148 87.7188 153.805 87.4119 153.367 87.196C152.93 86.9801 152.433 86.8722 151.876 86.8722C151.302 86.8722 150.799 86.9915 150.367 87.2301C149.935 87.4631 149.6 87.7955 149.362 88.2273C149.129 88.6591 149.012 89.1733 149.012 89.7699H146.004C146.004 88.6619 146.256 87.6989 146.762 86.8807C147.268 86.0625 147.964 85.429 148.85 84.9801C149.742 84.5312 150.765 84.3068 151.918 84.3068C153.089 84.3068 154.117 84.5256 155.004 84.9631C155.89 85.4006 156.577 86 157.066 86.7614C157.56 87.5227 157.808 88.392 157.808 89.3693C157.808 90.0227 157.683 90.6648 157.433 91.2955C157.183 91.9261 156.742 92.625 156.112 93.392C155.487 94.1591 154.609 95.0881 153.478 96.179L150.469 99.2386V99.358H158.072V102H146.106Z" fill="white"/>
<path d="M190 98.5V91.5M190 91.5L186.5 95M190 91.5L193.5 95" stroke="#2DDB81" stroke-width="1.5" stroke-linecap="round" stroke-linejoin="round"/>
<path d="M201.571 100L206.016 91.2102V91.1357H200.875V89.8182H207.607V91.1804L203.177 100H201.571ZM208.585 100.094C208.313 100.094 208.08 99.9983 207.884 99.8061C207.689 99.6106 207.591 99.3752 207.591 99.1001C207.591 98.8284 207.689 98.5964 207.884 98.4041C208.08 98.2086 208.313 98.1108 208.585 98.1108C208.857 98.1108 209.091 98.2086 209.286 98.4041C209.482 98.5964 209.579 98.8284 209.579 99.1001C209.579 99.2824 209.533 99.4498 209.44 99.6023C209.351 99.7514 209.231 99.8707 209.082 99.9602C208.933 100.05 208.767 100.094 208.585 100.094ZM211.551 100V98.8864L214.996 95.3168C215.364 94.929 215.667 94.5893 215.906 94.2976C216.148 94.0026 216.328 93.7225 216.448 93.4574C216.567 93.1922 216.627 92.9105 216.627 92.6122C216.627 92.2741 216.547 91.9825 216.388 91.7372C216.229 91.4886 216.012 91.2981 215.737 91.1655C215.462 91.0296 215.152 90.9616 214.807 90.9616C214.443 90.9616 214.124 91.0362 213.853 91.1854C213.581 91.3345 213.372 91.545 213.226 91.8168C213.08 92.0885 213.007 92.4067 213.007 92.7713H211.541C211.541 92.1515 211.683 91.6096 211.968 91.1456C212.253 90.6816 212.644 90.322 213.142 90.0668C213.639 89.8082 214.204 89.679 214.837 89.679C215.477 89.679 216.04 89.8066 216.527 90.0618C217.018 90.3137 217.401 90.6584 217.676 91.0959C217.951 91.5301 218.088 92.0206 218.088 92.5675C218.088 92.9453 218.017 93.3149 217.875 93.6761C217.735 94.0374 217.492 94.4401 217.144 94.8842C216.796 95.325 216.312 95.8603 215.692 96.4901L213.669 98.608V98.6825H218.252V100H211.551ZM225.451 98.0909V97.554C225.451 97.1695 225.531 96.8182 225.69 96.5C225.852 96.1785 226.088 95.9216 226.396 95.7294C226.707 95.5339 227.084 95.4361 227.524 95.4361C227.975 95.4361 228.353 95.5322 228.658 95.7244C228.963 95.9167 229.193 96.1735 229.349 96.495C229.508 96.8165 229.588 97.1695 229.588 97.554V98.0909C229.588 98.4754 229.508 98.8284 229.349 99.1499C229.19 99.468 228.956 99.7249 228.648 99.9205C228.343 100.113 227.969 100.209 227.524 100.209C227.077 100.209 226.699 100.113 226.391 99.9205C226.083 99.7249 225.849 99.468 225.69 99.1499C225.531 98.8284 225.451 98.4754 225.451 98.0909ZM226.61 97.554V98.0909C226.61 98.3759 226.678 98.6345 226.813 98.8665C226.949 99.0985 227.186 99.2145 227.524 99.2145C227.859 99.2145 228.093 99.0985 228.225 98.8665C228.358 98.6345 228.424 98.3759 228.424 98.0909V97.554C228.424 97.2689 228.36 97.0104 228.23 96.7784C228.104 96.5464 227.869 96.4304 227.524 96.4304C227.193 96.4304 226.958 96.5464 226.818 96.7784C226.679 97.0104 226.61 97.2689 226.61 97.554ZM220.331 92.2642V91.7273C220.331 91.3428 220.41 90.9898 220.569 90.6683C220.732 90.3468 220.967 90.09 221.275 89.8977C221.587 89.7055 221.963 89.6094 222.404 89.6094C222.854 89.6094 223.232 89.7055 223.537 89.8977C223.842 90.09 224.072 90.3468 224.228 90.6683C224.384 90.9898 224.462 91.3428 224.462 91.7273V92.2642C224.462 92.6487 224.382 93.0017 224.223 93.3232C224.068 93.6413 223.835 93.8982 223.527 94.0938C223.222 94.286 222.848 94.3821 222.404 94.3821C221.953 94.3821 221.573 94.286 221.265 94.0938C220.96 93.8982 220.728 93.6413 220.569 93.3232C220.41 93.0017 220.331 92.6487 220.331 92.2642ZM221.494 91.7273V92.2642C221.494 92.5492 221.56 92.8078 221.693 93.0398C221.829 93.2718 222.066 93.3878 222.404 93.3878C222.735 93.3878 222.967 93.2718 223.1 93.0398C223.236 92.8078 223.304 92.5492 223.304 92.2642V91.7273C223.304 91.4422 223.239 91.1837 223.11 90.9517C222.98 90.7197 222.745 90.6037 222.404 90.6037C222.072 90.6037 221.837 90.7197 221.698 90.9517C221.562 91.1837 221.494 91.4422 221.494 91.7273ZM220.803 100L227.803 89.8182H228.991L221.991 100H220.803Z" fill="#2DDB81"/>
<path d="M25.2013 172.273H26.4627L29.4286 179.517H29.5309L32.4968 172.273H33.7582V181H32.7695V174.369H32.6843L29.957 181H29.0025L26.2752 174.369H26.19V181H25.2013V172.273ZM38.3999 181.136C37.8089 181.136 37.2905 180.996 36.8445 180.714C36.4013 180.433 36.0547 180.04 35.8047 179.534C35.5575 179.028 35.4339 178.437 35.4339 177.761C35.4339 177.08 35.5575 176.484 35.8047 175.976C36.0547 175.467 36.4013 175.072 36.8445 174.791C37.2905 174.51 37.8089 174.369 38.3999 174.369C38.9908 174.369 39.5078 174.51 39.951 174.791C40.397 175.072 40.7436 175.467 40.9908 175.976C41.2408 176.484 41.3658 177.08 41.3658 177.761C41.3658 178.437 41.2408 179.028 40.9908 179.534C40.7436 180.04 40.397 180.433 39.951 180.714C39.5078 180.996 38.9908 181.136 38.3999 181.136ZM38.3999 180.233C38.8487 180.233 39.218 180.118 39.5078 179.888C39.7976 179.658 40.0121 179.355 40.1513 178.98C40.2905 178.605 40.3601 178.199 40.3601 177.761C40.3601 177.324 40.2905 176.916 40.1513 176.538C40.0121 176.161 39.7976 175.855 39.5078 175.622C39.218 175.389 38.8487 175.273 38.3999 175.273C37.951 175.273 37.5817 175.389 37.2919 175.622C37.0021 175.855 36.7876 176.161 36.6484 176.538C36.5092 176.916 36.4396 177.324 36.4396 177.761C36.4396 178.199 36.5092 178.605 36.6484 178.98C36.7876 179.355 37.0021 179.658 37.2919 179.888C37.5817 180.118 37.951 180.233 38.3999 180.233ZM43.9066 177.062V181H42.9009V174.455H43.8725V175.477H43.9577C44.1112 175.145 44.3441 174.878 44.6566 174.676C44.9691 174.472 45.3725 174.369 45.8668 174.369C46.31 174.369 46.6978 174.46 47.0302 174.642C47.3626 174.821 47.6211 175.094 47.8058 175.46C47.9904 175.824 48.0827 176.284 48.0827 176.841V181H47.0771V176.909C47.0771 176.395 46.9435 175.994 46.6765 175.707C46.4094 175.418 46.043 175.273 45.5771 175.273C45.256 175.273 44.9691 175.342 44.7163 175.482C44.4663 175.621 44.2688 175.824 44.1239 176.091C43.979 176.358 43.9066 176.682 43.9066 177.062Z" fill="#9AE1BC"/>
<path d="M74.6469 173.21V172.273H81.1924V173.21H78.4481V181H77.3912V173.21H74.6469ZM85.9214 178.324V174.455H86.9271V181H85.9214V179.892H85.8532C85.6998 180.224 85.4612 180.507 85.1373 180.74C84.8135 180.97 84.4044 181.085 83.9101 181.085C83.501 181.085 83.1373 180.996 82.8192 180.817C82.501 180.635 82.251 180.362 82.0692 179.999C81.8873 179.632 81.7964 179.17 81.7964 178.614V174.455H82.8021V178.545C82.8021 179.023 82.9356 179.403 83.2027 179.688C83.4726 179.972 83.8163 180.114 84.2339 180.114C84.4839 180.114 84.7382 180.05 84.9967 179.922C85.2581 179.794 85.4768 179.598 85.653 179.334C85.8319 179.07 85.9214 178.733 85.9214 178.324ZM91.5134 181.136C90.8827 181.136 90.3387 180.997 89.8813 180.719C89.4268 180.438 89.0759 180.045 88.8287 179.543C88.5844 179.037 88.4623 178.449 88.4623 177.778C88.4623 177.108 88.5844 176.517 88.8287 176.006C89.0759 175.491 89.4197 175.091 89.86 174.804C90.3032 174.514 90.8202 174.369 91.4111 174.369C91.752 174.369 92.0887 174.426 92.4211 174.54C92.7535 174.653 93.056 174.838 93.3287 175.094C93.6015 175.347 93.8188 175.682 93.9807 176.099C94.1427 176.517 94.2236 177.031 94.2236 177.642V178.068H89.1782V177.199H93.2009C93.2009 176.83 93.127 176.5 92.9793 176.21C92.8344 175.92 92.627 175.692 92.3572 175.524C92.0901 175.357 91.7748 175.273 91.4111 175.273C91.0106 175.273 90.664 175.372 90.3714 175.571C90.0816 175.767 89.8586 176.023 89.7023 176.338C89.5461 176.653 89.468 176.991 89.468 177.352V177.932C89.468 178.426 89.5532 178.845 89.7236 179.189C89.8969 179.53 90.137 179.79 90.4438 179.969C90.7506 180.145 91.1072 180.233 91.5134 180.233C91.7776 180.233 92.0162 180.196 92.2293 180.122C92.4452 180.045 92.6313 179.932 92.7876 179.781C92.9438 179.628 93.0645 179.437 93.1498 179.21L94.1214 179.483C94.0191 179.812 93.8472 180.102 93.6057 180.352C93.3643 180.599 93.066 180.793 92.7108 180.932C92.3557 181.068 91.9566 181.136 91.5134 181.136Z" fill="#9AE1BC"/>
<path d="M123.09 181L120.704 172.273H121.778L123.602 179.381H123.687L125.545 172.273H126.738L128.596 179.381H128.681L130.505 172.273H131.579L129.193 181H128.102L126.176 174.045H126.107L124.181 181H123.09ZM134.894 181.136C134.264 181.136 133.72 180.997 133.262 180.719C132.808 180.438 132.457 180.045 132.21 179.543C131.965 179.037 131.843 178.449 131.843 177.778C131.843 177.108 131.965 176.517 132.21 176.006C132.457 175.491 132.801 175.091 133.241 174.804C133.684 174.514 134.201 174.369 134.792 174.369C135.133 174.369 135.47 174.426 135.802 174.54C136.134 174.653 136.437 174.838 136.71 175.094C136.982 175.347 137.2 175.682 137.362 176.099C137.524 176.517 137.604 177.031 137.604 177.642V178.068H132.559V177.199H136.582C136.582 176.83 136.508 176.5 136.36 176.21C136.215 175.92 136.008 175.692 135.738 175.524C135.471 175.357 135.156 175.273 134.792 175.273C134.391 175.273 134.045 175.372 133.752 175.571C133.462 175.767 133.239 176.023 133.083 176.338C132.927 176.653 132.849 176.991 132.849 177.352V177.932C132.849 178.426 132.934 178.845 133.104 179.189C133.278 179.53 133.518 179.79 133.825 179.969C134.131 180.145 134.488 180.233 134.894 180.233C135.158 180.233 135.397 180.196 135.61 180.122C135.826 180.045 136.012 179.932 136.168 179.781C136.325 179.628 136.445 179.437 136.531 179.21L137.502 179.483C137.4 179.812 137.228 180.102 136.987 180.352C136.745 180.599 136.447 180.793 136.092 180.932C135.737 181.068 135.337 181.136 134.894 181.136ZM141.606 181.136C141.06 181.136 140.579 180.999 140.161 180.723C139.744 180.445 139.417 180.053 139.181 179.547C138.945 179.038 138.828 178.438 138.828 177.744C138.828 177.057 138.945 176.46 139.181 175.955C139.417 175.449 139.745 175.058 140.166 174.783C140.586 174.507 141.072 174.369 141.623 174.369C142.049 174.369 142.386 174.44 142.633 174.582C142.883 174.722 143.073 174.881 143.204 175.06C143.337 175.236 143.441 175.381 143.515 175.494H143.6V172.273H144.606V181H143.634V179.994H143.515C143.441 180.114 143.336 180.264 143.2 180.446C143.063 180.625 142.869 180.786 142.616 180.928C142.363 181.067 142.026 181.136 141.606 181.136ZM141.742 180.233C142.146 180.233 142.487 180.128 142.765 179.918C143.043 179.705 143.255 179.411 143.4 179.036C143.545 178.658 143.617 178.222 143.617 177.727C143.617 177.239 143.546 176.811 143.404 176.445C143.262 176.075 143.052 175.788 142.774 175.584C142.495 175.376 142.151 175.273 141.742 175.273C141.316 175.273 140.961 175.382 140.677 175.601C140.396 175.817 140.184 176.111 140.042 176.483C139.903 176.852 139.833 177.267 139.833 177.727C139.833 178.193 139.904 178.616 140.046 178.997C140.191 179.375 140.404 179.676 140.685 179.901C140.97 180.122 141.322 180.233 141.742 180.233Z" fill="#9AE1BC"/>
<path d="M171.318 173.21V172.273H177.863V173.21H175.119V181H174.062V173.21H171.318ZM180.364 177.062V181H179.358V172.273H180.364V175.477H180.449C180.602 175.139 180.832 174.871 181.139 174.672C181.449 174.47 181.861 174.369 182.375 174.369C182.821 174.369 183.212 174.459 183.547 174.638C183.882 174.814 184.142 175.085 184.327 175.452C184.514 175.815 184.608 176.278 184.608 176.841V181H183.602V176.909C183.602 176.389 183.467 175.987 183.197 175.703C182.93 175.416 182.56 175.273 182.085 175.273C181.756 175.273 181.46 175.342 181.199 175.482C180.94 175.621 180.736 175.824 180.585 176.091C180.438 176.358 180.364 176.682 180.364 177.062ZM190.573 178.324V174.455H191.578V181H190.573V179.892H190.505C190.351 180.224 190.113 180.507 189.789 180.74C189.465 180.97 189.056 181.085 188.561 181.085C188.152 181.085 187.789 180.996 187.471 180.817C187.152 180.635 186.902 180.362 186.721 179.999C186.539 179.632 186.448 179.17 186.448 178.614V174.455H187.453V178.545C187.453 179.023 187.587 179.403 187.854 179.688C188.124 179.972 188.468 180.114 188.885 180.114C189.135 180.114 189.39 180.05 189.648 179.922C189.909 179.794 190.128 179.598 190.304 179.334C190.483 179.07 190.573 178.733 190.573 178.324Z" fill="#9AE1BC"/>
<path d="M219.105 181V172.273H224.338V173.21H220.161V176.159H223.946V177.097H220.161V181H219.105ZM225.941 181V174.455H226.913V175.443H226.981C227.1 175.119 227.316 174.857 227.628 174.655C227.941 174.453 228.293 174.352 228.685 174.352C228.759 174.352 228.851 174.354 228.962 174.357C229.073 174.359 229.157 174.364 229.214 174.369V175.392C229.18 175.384 229.101 175.371 228.979 175.354C228.86 175.334 228.734 175.324 228.6 175.324C228.282 175.324 227.998 175.391 227.748 175.524C227.501 175.655 227.305 175.837 227.16 176.07C227.018 176.3 226.947 176.562 226.947 176.858V181H225.941ZM230.406 181V174.455H231.411V181H230.406ZM230.917 173.364C230.721 173.364 230.552 173.297 230.41 173.163C230.271 173.03 230.201 172.869 230.201 172.682C230.201 172.494 230.271 172.334 230.41 172.2C230.552 172.067 230.721 172 230.917 172C231.113 172 231.281 172.067 231.42 172.2C231.562 172.334 231.633 172.494 231.633 172.682C231.633 172.869 231.562 173.03 231.42 173.163C231.281 173.297 231.113 173.364 230.917 173.364Z" fill="#9AE1BC"/>
<path d="M263.223 174.455C263.172 174.023 262.965 173.688 262.601 173.449C262.237 173.21 261.791 173.091 261.263 173.091C260.877 173.091 260.538 173.153 260.249 173.278C259.962 173.403 259.737 173.575 259.575 173.794C259.416 174.013 259.337 174.261 259.337 174.54C259.337 174.773 259.392 174.973 259.503 175.141C259.617 175.305 259.761 175.443 259.938 175.554C260.114 175.662 260.298 175.751 260.492 175.822C260.685 175.891 260.862 175.946 261.024 175.989L261.911 176.227C262.138 176.287 262.391 176.369 262.669 176.474C262.95 176.58 263.219 176.723 263.475 176.905C263.733 177.084 263.946 177.314 264.114 177.595C264.281 177.876 264.365 178.222 264.365 178.631C264.365 179.102 264.242 179.528 263.994 179.909C263.75 180.29 263.392 180.592 262.921 180.817C262.452 181.041 261.882 181.153 261.212 181.153C260.587 181.153 260.046 181.053 259.588 180.851C259.134 180.649 258.776 180.368 258.514 180.007C258.256 179.646 258.109 179.227 258.075 178.75H259.166C259.195 179.08 259.305 179.352 259.499 179.568C259.695 179.781 259.942 179.94 260.24 180.045C260.541 180.148 260.865 180.199 261.212 180.199C261.615 180.199 261.977 180.134 262.298 180.003C262.619 179.869 262.874 179.685 263.061 179.449C263.249 179.21 263.342 178.932 263.342 178.614C263.342 178.324 263.261 178.088 263.1 177.906C262.938 177.724 262.725 177.577 262.46 177.463C262.196 177.349 261.911 177.25 261.604 177.165L260.53 176.858C259.848 176.662 259.308 176.382 258.911 176.018C258.513 175.655 258.314 175.179 258.314 174.591C258.314 174.102 258.446 173.676 258.71 173.312C258.977 172.946 259.335 172.662 259.784 172.46C260.236 172.256 260.74 172.153 261.297 172.153C261.859 172.153 262.359 172.254 262.797 172.456C263.234 172.655 263.581 172.928 263.837 173.274C264.095 173.621 264.232 174.014 264.246 174.455H263.223ZM267.892 181.153C267.478 181.153 267.101 181.075 266.763 180.919C266.425 180.76 266.157 180.531 265.958 180.233C265.759 179.932 265.66 179.568 265.66 179.142C265.66 178.767 265.733 178.463 265.881 178.23C266.029 177.994 266.226 177.81 266.473 177.676C266.721 177.543 266.993 177.443 267.292 177.378C267.593 177.31 267.895 177.256 268.199 177.216C268.597 177.165 268.919 177.126 269.167 177.101C269.417 177.072 269.598 177.026 269.712 176.96C269.829 176.895 269.887 176.781 269.887 176.619V176.585C269.887 176.165 269.772 175.838 269.542 175.605C269.314 175.372 268.969 175.256 268.506 175.256C268.026 175.256 267.65 175.361 267.377 175.571C267.104 175.781 266.912 176.006 266.802 176.244L265.847 175.903C266.017 175.506 266.245 175.196 266.529 174.974C266.816 174.75 267.128 174.594 267.466 174.506C267.807 174.415 268.142 174.369 268.472 174.369C268.682 174.369 268.924 174.395 269.196 174.446C269.472 174.494 269.738 174.595 269.993 174.749C270.252 174.902 270.466 175.134 270.637 175.443C270.807 175.753 270.892 176.168 270.892 176.688V181H269.887V180.114H269.836C269.767 180.256 269.654 180.408 269.495 180.57C269.336 180.732 269.124 180.869 268.86 180.983C268.596 181.097 268.273 181.153 267.892 181.153ZM268.046 180.25C268.444 180.25 268.779 180.172 269.052 180.016C269.327 179.859 269.535 179.658 269.674 179.411C269.816 179.163 269.887 178.903 269.887 178.631V177.71C269.844 177.761 269.75 177.808 269.606 177.851C269.464 177.891 269.299 177.926 269.111 177.957C268.927 177.986 268.746 178.011 268.57 178.034C268.397 178.054 268.256 178.071 268.148 178.085C267.887 178.119 267.642 178.175 267.415 178.251C267.191 178.325 267.009 178.437 266.87 178.588C266.733 178.736 266.665 178.937 266.665 179.193C266.665 179.543 266.794 179.807 267.053 179.986C267.314 180.162 267.645 180.25 268.046 180.25ZM275.575 174.455V175.307H272.183V174.455H275.575ZM273.171 172.886H274.177V179.125C274.177 179.409 274.218 179.622 274.301 179.764C274.386 179.903 274.494 179.997 274.624 180.045C274.758 180.091 274.899 180.114 275.046 180.114C275.157 180.114 275.248 180.108 275.319 180.097C275.39 180.082 275.447 180.071 275.489 180.062L275.694 180.966C275.626 180.991 275.531 181.017 275.408 181.043C275.286 181.071 275.131 181.085 274.944 181.085C274.66 181.085 274.381 181.024 274.109 180.902C273.839 180.78 273.614 180.594 273.435 180.344C273.259 180.094 273.171 179.778 273.171 179.398V172.886Z" fill="#9AE1BC"/>
<path d="M307.185 174.455C307.134 174.023 306.926 173.688 306.563 173.449C306.199 173.21 305.753 173.091 305.225 173.091C304.838 173.091 304.5 173.153 304.211 173.278C303.924 173.403 303.699 173.575 303.537 173.794C303.378 174.013 303.299 174.261 303.299 174.54C303.299 174.773 303.354 174.973 303.465 175.141C303.578 175.305 303.723 175.443 303.9 175.554C304.076 175.662 304.26 175.751 304.453 175.822C304.647 175.891 304.824 175.946 304.986 175.989L305.873 176.227C306.1 176.287 306.353 176.369 306.631 176.474C306.912 176.58 307.181 176.723 307.436 176.905C307.695 177.084 307.908 177.314 308.076 177.595C308.243 177.876 308.327 178.222 308.327 178.631C308.327 179.102 308.203 179.528 307.956 179.909C307.712 180.29 307.354 180.592 306.882 180.817C306.414 181.041 305.844 181.153 305.174 181.153C304.549 181.153 304.007 181.053 303.55 180.851C303.096 180.649 302.738 180.368 302.476 180.007C302.218 179.646 302.071 179.227 302.037 178.75H303.128C303.157 179.08 303.267 179.352 303.461 179.568C303.657 179.781 303.904 179.94 304.202 180.045C304.503 180.148 304.827 180.199 305.174 180.199C305.577 180.199 305.939 180.134 306.26 180.003C306.581 179.869 306.836 179.685 307.023 179.449C307.211 179.21 307.304 178.932 307.304 178.614C307.304 178.324 307.223 178.088 307.061 177.906C306.9 177.724 306.686 177.577 306.422 177.463C306.158 177.349 305.873 177.25 305.566 177.165L304.492 176.858C303.81 176.662 303.27 176.382 302.873 176.018C302.475 175.655 302.276 175.179 302.276 174.591C302.276 174.102 302.408 173.676 302.672 173.312C302.939 172.946 303.297 172.662 303.746 172.46C304.198 172.256 304.702 172.153 305.259 172.153C305.821 172.153 306.321 172.254 306.759 172.456C307.196 172.655 307.543 172.928 307.799 173.274C308.057 173.621 308.194 174.014 308.208 174.455H307.185ZM314.053 178.324V174.455H315.059V181H314.053V179.892H313.985C313.832 180.224 313.593 180.507 313.269 180.74C312.945 180.97 312.536 181.085 312.042 181.085C311.633 181.085 311.269 180.996 310.951 180.817C310.633 180.635 310.383 180.362 310.201 179.999C310.019 179.632 309.928 179.17 309.928 178.614V174.455H310.934V178.545C310.934 179.023 311.067 179.403 311.335 179.688C311.604 179.972 311.948 180.114 312.366 180.114C312.616 180.114 312.87 180.05 313.129 179.922C313.39 179.794 313.609 179.598 313.785 179.334C313.964 179.07 314.053 178.733 314.053 178.324ZM317.907 177.062V181H316.901V174.455H317.873V175.477H317.958C318.111 175.145 318.344 174.878 318.657 174.676C318.969 174.472 319.373 174.369 319.867 174.369C320.31 174.369 320.698 174.46 321.03 174.642C321.363 174.821 321.621 175.094 321.806 175.46C321.99 175.824 322.083 176.284 322.083 176.841V181H321.077V176.909C321.077 176.395 320.944 175.994 320.676 175.707C320.409 175.418 320.043 175.273 319.577 175.273C319.256 175.273 318.969 175.342 318.716 175.482C318.466 175.621 318.269 175.824 318.124 176.091C317.979 176.358 317.907 176.682 317.907 177.062Z" fill="#9AE1BC"/>
<g style="mix-blend-mode:multiply" opacity="0.1">
<path d="M322 140.607C326.5 140.607 326.5 138.995 331 138.995V159H16V149.303C20.875 149.303 20.5 149.896 25 149.896C29.5 149.896 29.5 148.212 34 148.212C38.5 148.212 37.75 148.73 43 148.73C48.25 148.73 46.75 149.7 52 149.7C57.25 149.7 56.125 149.332 61 149.332C65.875 149.332 64.9375 147.575 70 147.575C75.0625 147.575 73.75 148.148 79 148.148C84.25 148.148 83.3125 148.937 88 148.937C92.6875 148.937 91.9375 146.317 97 146.317C102.062 146.317 101.5 147.224 106 147.224C110.5 147.224 109.75 145.954 115 145.954C120.25 145.954 119.125 146.766 124 146.766C128.875 146.766 128.125 143.446 133 143.446C137.875 143.446 136.938 144.371 142 144.371C147.062 144.371 145.75 144.981 151 144.981C156.25 144.981 154.938 143.397 160 143.397C165.062 143.397 163.75 144.175 169 144.175C174.25 144.175 173.312 142.893 178 142.893C182.688 142.893 182.125 140.751 187 140.751C191.875 140.751 191.125 144.336 196 144.336C200.875 144.336 200.312 141.825 205 141.825C209.688 141.825 208.75 142.925 214 142.925C219.25 142.925 218.125 143.913 223 143.913C227.875 143.913 227.312 142.277 232 142.277C236.688 142.277 236.313 143.832 241 143.832C245.688 143.832 245.125 143.141 250 143.141C254.875 143.141 254.125 141.716 259 141.716C263.875 141.716 263.125 142.286 268 142.286C272.875 142.286 272.5 140.204 277 140.204C281.5 140.204 280.75 143.058 286 143.058C291.25 143.058 289.938 141.12 295 141.12C300.062 141.12 299.313 141.917 304 141.917C308.688 141.917 308.312 139.931 313 139.931C317.688 139.931 317.5 140.607 322 140.607Z" fill="url(#paint0_linear_181_3656)"/>
</g>
<path d="M331 138.995C326.5 138.995 326.5 140.607 322 140.607C317.5 140.607 317.687 139.931 313 139.931C308.313 139.931 308.688 141.917 304 141.917C299.313 141.917 300.063 141.12 295 141.12C289.938 141.12 291.25 143.058 286 143.058C280.75 143.058 281.5 140.204 277 140.204C272.5 140.204 272.875 142.286 268 142.286C263.125 142.286 263.875 141.716 259 141.716C254.125 141.716 254.875 143.141 250 143.141C245.125 143.141 245.688 143.832 241 143.832C236.313 143.832 236.687 142.277 232 142.277C227.312 142.277 227.875 143.913 223 143.913C218.125 143.913 219.25 142.925 214 142.925C208.75 142.925 209.688 141.825 205 141.825C200.313 141.825 200.875 144.336 196 144.336C191.125 144.336 191.875 140.751 187 140.751C182.125 140.751 182.688 142.893 178 142.893C173.313 142.893 174.25 144.175 169 144.175C163.75 144.175 165.062 143.397 160 143.397C154.937 143.397 156.25 144.981 151 144.981C145.75 144.981 147.063 144.371 142 144.371C136.938 144.371 137.875 143.446 133 143.446C128.125 143.446 128.875 146.766 124 146.766C119.125 146.766 120.25 145.954 115 145.954C109.75 145.954 110.5 147.224 106 147.224C101.5 147.224 102.062 146.317 97 146.317C91.9375 146.317 92.6875 148.937 88 148.937C83.3125 148.937 84.25 148.148 79 148.148C73.75 148.148 75.0625 147.575 70 147.575C64.9375 147.575 65.875 149.332 61 149.332C56.125 149.332 57.25 149.7 52 149.7C46.75 149.7 48.25 148.73 43 148.73C37.75 148.73 38.5 148.212 34 148.212C29.5 148.212 29.5 149.896 25 149.896C20.5 149.896 20.875 149.303 16 149.303" stroke="#56D98A" stroke-width="2" stroke-linecap="round" stroke-linejoin="round"/>
<defs>
<filter id="filter0_d_181_3656" x="214" y="19" width="119" height="42" filterUnits="userSpaceOnUse" color-interpolation-filters="sRGB">
<feFlood flood-opacity="0" result="BackgroundImageFix"/>
<feColorMatrix in="SourceAlpha" type="matrix" values="0 0 0 0 0 0 0 0 0 0 0 0 0 0 0 0 0 0 127 0" result="hardAlpha"/>
<feOffset dy="1"/>
<feGaussianBlur stdDeviation="1"/>
<feColorMatrix type="matrix" values="0 0 0 0 0.0627451 0 0 0 0 0.0941176 0 0 0 0 0.156863 0 0 0 0.05 0"/>
<feBlend mode="normal" in2="BackgroundImageFix" result="effect1_dropShadow_181_3656"/>
<feBlend mode="normal" in="SourceGraphic" in2="effect1_dropShadow_181_3656" result="shape"/>
</filter>
<linearGradient id="paint0_linear_181_3656" x1="173.5" y1="138.995" x2="173.5" y2="158.109" gradientUnits="userSpaceOnUse">
<stop stop-color="#56D992"/>
<stop offset="1" stop-color="#56D992" stop-opacity="0"/>
</linearGradient>
</defs>
</svg>
