<svg width="1280" height="640" viewBox="0 0 1280 640" fill="none" xmlns="http://www.w3.org/2000/svg">
<path d="M-2.79753e-05 0C-2.25799e-05 169.739 67.4284 332.525 187.452 452.548C307.475 572.572 470.261 640 640 640C809.738 640 972.525 572.572 1092.55 452.548C1212.57 332.525 1280 169.739 1280 6.61197e-05L1100.8 1.29177e-05C1100.8 122.212 1052.25 239.418 965.835 325.835C879.418 412.252 762.212 460.8 640 460.8C517.788 460.8 400.582 412.252 314.165 325.835C227.748 239.418 179.2 122.212 179.2 -7.83308e-06L-2.79753e-05 0Z" fill="url(#paint0_linear_188_4178)"/>
<defs>
<linearGradient id="paint0_linear_188_4178" x1="640" y1="-57.5" x2="640" y2="640" gradientUnits="userSpaceOnUse">
<stop stop-color="#2DDB81"/>
<stop offset="1" stop-color="#030503" stop-opacity="0"/>
</linearGradient>
</defs>
</svg>
