<svg width="430" height="356" viewBox="0 0 430 356" fill="none" xmlns="http://www.w3.org/2000/svg">
<path d="M-90 0C-90 94.4171 -57.8662 184.967 -0.667577 251.73C56.531 318.493 134.109 356 215 356C295.891 356 373.469 318.493 430.668 251.73C487.866 184.967 520 94.4171 520 3.43712e-05L434.6 7.58658e-06C434.6 67.9803 411.464 133.176 370.281 181.246C329.098 229.315 273.242 256.32 215 256.32C156.758 256.32 100.902 229.315 59.7193 181.246C18.5363 133.176 -4.60002 67.9803 -4.60002 -3.73295e-06L-90 0Z" fill="url(#paint0_linear_335_12201)"/>
<defs>
<linearGradient id="paint0_linear_335_12201" x1="215" y1="-31.9843" x2="215" y2="356" gradientUnits="userSpaceOnUse">
<stop stop-color="#2DDB81"/>
<stop offset="1" stop-color="#030503" stop-opacity="0"/>
</linearGradient>
</defs>
</svg>
