<svg width="703" height="196" viewBox="0 0 703 196" fill="none" xmlns="http://www.w3.org/2000/svg">
<rect width="703" height="196" rx="7" fill="#1D1D1D"/>
<path d="M21.2784 23.3636H23.4091L27.1136 32.4091H27.25L30.9545 23.3636H33.0852V35H31.4148V26.5795H31.3068L27.875 34.983H26.4886L23.0568 26.5739H22.9489V35H21.2784V23.3636ZM36.5753 38.2727C36.3215 38.2727 36.0904 38.2519 35.8821 38.2102C35.6738 38.1723 35.5185 38.1307 35.4162 38.0852L35.8253 36.6932C36.1359 36.7765 36.4124 36.8125 36.6548 36.8011C36.8973 36.7898 37.1113 36.6989 37.2969 36.5284C37.4863 36.358 37.6529 36.0795 37.7969 35.6932L38.0071 35.1136L34.8139 26.2727H36.6321L38.8423 33.0455H38.9332L41.1435 26.2727H42.9673L39.3707 36.1648C39.2041 36.6193 38.992 37.0038 38.7344 37.3182C38.4768 37.6364 38.17 37.875 37.8139 38.0341C37.4579 38.1932 37.045 38.2727 36.5753 38.2727ZM50.6903 23.3636V35H48.9347V23.3636H50.6903ZM54.8097 29.8182V35H53.1108V26.2727H54.7415V27.6932H54.8494C55.0502 27.2311 55.3646 26.8598 55.7926 26.5795C56.2244 26.2992 56.768 26.1591 57.4233 26.1591C58.018 26.1591 58.5388 26.2841 58.9858 26.5341C59.4328 26.7803 59.7794 27.1477 60.0256 27.6364C60.2718 28.125 60.3949 28.7292 60.3949 29.4489V35H58.696V29.6534C58.696 29.0208 58.5313 28.5265 58.2017 28.1705C57.8722 27.8106 57.4195 27.6307 56.8438 27.6307C56.4498 27.6307 56.0994 27.7159 55.7926 27.8864C55.4896 28.0568 55.2491 28.3068 55.071 28.6364C54.8968 28.9621 54.8097 29.3561 54.8097 29.8182ZM66.3494 35.1761C65.5047 35.1761 64.7775 34.9848 64.1676 34.6023C63.5616 34.2159 63.0956 33.6837 62.7699 33.0057C62.4441 32.3277 62.2812 31.5511 62.2812 30.6761C62.2812 29.7898 62.4479 29.0076 62.7812 28.3295C63.1146 27.6477 63.5843 27.1155 64.1903 26.733C64.7964 26.3504 65.5104 26.1591 66.3324 26.1591C66.9953 26.1591 67.5862 26.2822 68.1051 26.5284C68.6241 26.7708 69.0426 27.1117 69.3608 27.5511C69.6828 27.9905 69.8741 28.5038 69.9347 29.0909H68.2812C68.1903 28.6818 67.982 28.3295 67.6562 28.0341C67.3343 27.7386 66.9025 27.5909 66.3608 27.5909C65.8873 27.5909 65.4725 27.7159 65.1165 27.9659C64.7642 28.2121 64.4896 28.5644 64.2926 29.0227C64.0956 29.4773 63.9972 30.0152 63.9972 30.6364C63.9972 31.2727 64.0938 31.822 64.2869 32.2841C64.4801 32.7462 64.7528 33.1042 65.1051 33.358C65.4612 33.6117 65.8797 33.7386 66.3608 33.7386C66.6828 33.7386 66.9744 33.6799 67.2358 33.5625C67.5009 33.4413 67.7225 33.2689 67.9006 33.0455C68.0824 32.822 68.2093 32.553 68.2812 32.2386H69.9347C69.8741 32.803 69.6903 33.3068 69.3835 33.75C69.0767 34.1932 68.6657 34.5417 68.1506 34.7955C67.6392 35.0492 67.0388 35.1761 66.3494 35.1761ZM75.4276 35.1761C74.6094 35.1761 73.8954 34.9886 73.2855 34.6136C72.6757 34.2386 72.2022 33.714 71.8651 33.0398C71.5279 32.3655 71.3594 31.5777 71.3594 30.6761C71.3594 29.7708 71.5279 28.9792 71.8651 28.3011C72.2022 27.6231 72.6757 27.0966 73.2855 26.7216C73.8954 26.3466 74.6094 26.1591 75.4276 26.1591C76.2457 26.1591 76.9598 26.3466 77.5696 26.7216C78.1795 27.0966 78.6529 27.6231 78.9901 28.3011C79.3272 28.9792 79.4957 29.7708 79.4957 30.6761C79.4957 31.5777 79.3272 32.3655 78.9901 33.0398C78.6529 33.714 78.1795 34.2386 77.5696 34.6136C76.9598 34.9886 76.2457 35.1761 75.4276 35.1761ZM75.4332 33.75C75.9635 33.75 76.4029 33.6098 76.7514 33.3295C77.0999 33.0492 77.3575 32.6761 77.5241 32.2102C77.6946 31.7443 77.7798 31.2311 77.7798 30.6705C77.7798 30.1136 77.6946 29.6023 77.5241 29.1364C77.3575 28.6667 77.0999 28.2898 76.7514 28.0057C76.4029 27.7216 75.9635 27.5795 75.4332 27.5795C74.8991 27.5795 74.456 27.7216 74.1037 28.0057C73.7552 28.2898 73.4957 28.6667 73.3253 29.1364C73.1586 29.6023 73.0753 30.1136 73.0753 30.6705C73.0753 31.2311 73.1586 31.7443 73.3253 32.2102C73.4957 32.6761 73.7552 33.0492 74.1037 33.3295C74.456 33.6098 74.8991 33.75 75.4332 33.75ZM81.392 35V26.2727H83.0227V27.6932H83.1307C83.3125 27.2121 83.6098 26.8371 84.0227 26.5682C84.4356 26.2955 84.9299 26.1591 85.5057 26.1591C86.089 26.1591 86.5777 26.2955 86.9716 26.5682C87.3693 26.8409 87.6629 27.2159 87.8523 27.6932H87.9432C88.1515 27.2273 88.483 26.8561 88.9375 26.5795C89.392 26.2992 89.9337 26.1591 90.5625 26.1591C91.3542 26.1591 92 26.4072 92.5 26.9034C93.0038 27.3996 93.2557 28.1477 93.2557 29.1477V35H91.5568V29.3068C91.5568 28.7159 91.3958 28.2879 91.0739 28.0227C90.7519 27.7576 90.3674 27.625 89.9205 27.625C89.3674 27.625 88.9375 27.7955 88.6307 28.1364C88.3239 28.4735 88.1705 28.9072 88.1705 29.4375V35H86.4773V29.1989C86.4773 28.7254 86.3295 28.3447 86.0341 28.0568C85.7386 27.7689 85.3542 27.625 84.8807 27.625C84.5587 27.625 84.2614 27.7102 83.9886 27.8807C83.7197 28.0473 83.5019 28.2803 83.3352 28.5795C83.1723 28.8788 83.0909 29.2254 83.0909 29.6193V35H81.392ZM99.294 35.1761C98.4342 35.1761 97.6937 34.9924 97.0724 34.625C96.455 34.2538 95.9777 33.733 95.6406 33.0625C95.3073 32.3883 95.1406 31.5985 95.1406 30.6932C95.1406 29.7992 95.3073 29.0114 95.6406 28.3295C95.9777 27.6477 96.4474 27.1155 97.0497 26.733C97.6558 26.3504 98.3641 26.1591 99.1747 26.1591C99.6671 26.1591 100.144 26.2405 100.607 26.4034C101.069 26.5663 101.483 26.822 101.851 27.1705C102.218 27.5189 102.508 27.9716 102.72 28.5284C102.932 29.0814 103.038 29.7538 103.038 30.5455V31.1477H96.1009V29.875H101.374C101.374 29.428 101.283 29.0322 101.101 28.6875C100.919 28.339 100.663 28.0644 100.334 27.8636C100.008 27.6629 99.6255 27.5625 99.1861 27.5625C98.7088 27.5625 98.2921 27.6799 97.9361 27.9148C97.5838 28.1458 97.3111 28.4489 97.1179 28.8239C96.9285 29.1951 96.8338 29.5985 96.8338 30.0341V31.0284C96.8338 31.6117 96.9361 32.108 97.1406 32.517C97.349 32.9261 97.6387 33.2386 98.0099 33.4545C98.3812 33.6667 98.8149 33.7727 99.3111 33.7727C99.633 33.7727 99.9266 33.7273 100.192 33.6364C100.457 33.5417 100.686 33.4015 100.879 33.2159C101.072 33.0303 101.22 32.8011 101.322 32.5284L102.93 32.8182C102.802 33.2917 102.571 33.7064 102.237 34.0625C101.908 34.4148 101.493 34.6894 100.993 34.8864C100.497 35.0795 99.9304 35.1761 99.294 35.1761Z" fill="white"/>
<rect x="598.25" y="20.25" width="84.5" height="26.5" rx="4.4002" stroke="white" stroke-opacity="0.35" stroke-width="0.5"/>
<path d="M609.996 38V29.06H611.172V36.92H615.096V38H609.996ZM618.182 38.144C617.758 38.144 617.382 38.068 617.054 37.916C616.734 37.756 616.482 37.54 616.298 37.268C616.114 36.988 616.022 36.668 616.022 36.308C616.022 35.964 616.094 35.656 616.238 35.384C616.39 35.104 616.622 34.868 616.934 34.676C617.254 34.484 617.654 34.348 618.134 34.268L620.534 33.872V34.808L618.386 35.168C617.97 35.24 617.666 35.372 617.474 35.564C617.29 35.756 617.198 35.992 617.198 36.272C617.198 36.536 617.302 36.756 617.51 36.932C617.726 37.108 617.994 37.196 618.314 37.196C618.722 37.196 619.074 37.112 619.37 36.944C619.674 36.768 619.91 36.532 620.078 36.236C620.254 35.94 620.342 35.612 620.342 35.252V33.608C620.342 33.256 620.21 32.972 619.946 32.756C619.69 32.532 619.35 32.42 618.926 32.42C618.558 32.42 618.23 32.516 617.942 32.708C617.662 32.892 617.454 33.14 617.318 33.452L616.346 32.948C616.466 32.652 616.658 32.388 616.922 32.156C617.186 31.916 617.494 31.728 617.846 31.592C618.198 31.456 618.566 31.388 618.95 31.388C619.446 31.388 619.882 31.484 620.258 31.676C620.634 31.86 620.926 32.12 621.134 32.456C621.35 32.784 621.458 33.168 621.458 33.608V38H620.366V36.776L620.57 36.848C620.434 37.104 620.25 37.328 620.018 37.52C619.786 37.712 619.514 37.864 619.202 37.976C618.89 38.088 618.55 38.144 618.182 38.144ZM625.504 38.144C624.856 38.144 624.292 37.984 623.812 37.664C623.332 37.344 622.992 36.912 622.792 36.368L623.68 35.936C623.864 36.32 624.116 36.624 624.436 36.848C624.756 37.072 625.112 37.184 625.504 37.184C625.856 37.184 626.148 37.1 626.38 36.932C626.612 36.764 626.728 36.544 626.728 36.272C626.728 36.08 626.672 35.928 626.56 35.816C626.456 35.696 626.328 35.604 626.176 35.54C626.024 35.468 625.884 35.416 625.756 35.384L624.784 35.108C624.2 34.94 623.772 34.7 623.5 34.388C623.236 34.076 623.104 33.712 623.104 33.296C623.104 32.912 623.2 32.58 623.392 32.3C623.592 32.012 623.86 31.788 624.196 31.628C624.54 31.468 624.924 31.388 625.348 31.388C625.916 31.388 626.424 31.532 626.872 31.82C627.328 32.108 627.652 32.512 627.844 33.032L626.932 33.452C626.788 33.116 626.572 32.852 626.284 32.66C625.996 32.46 625.672 32.36 625.312 32.36C624.984 32.36 624.724 32.444 624.532 32.612C624.34 32.772 624.244 32.976 624.244 33.224C624.244 33.408 624.292 33.56 624.388 33.68C624.484 33.792 624.6 33.88 624.736 33.944C624.872 34 625.004 34.048 625.132 34.088L626.188 34.4C626.716 34.552 627.124 34.788 627.412 35.108C627.708 35.428 627.856 35.812 627.856 36.26C627.856 36.62 627.756 36.944 627.556 37.232C627.356 37.52 627.08 37.744 626.728 37.904C626.376 38.064 625.968 38.144 625.504 38.144ZM631.945 38.072C631.313 38.072 630.825 37.892 630.481 37.532C630.145 37.172 629.977 36.664 629.977 36.008V32.6H628.801V31.532H629.041C629.329 31.532 629.557 31.444 629.725 31.268C629.893 31.092 629.977 30.86 629.977 30.572V30.044H631.093V31.532H632.545V32.6H631.093V35.972C631.093 36.188 631.125 36.376 631.189 36.536C631.261 36.696 631.377 36.824 631.537 36.92C631.697 37.008 631.909 37.052 632.173 37.052C632.229 37.052 632.297 37.048 632.377 37.04C632.465 37.032 632.545 37.024 632.617 37.016V38C632.513 38.024 632.397 38.04 632.269 38.048C632.141 38.064 632.033 38.072 631.945 38.072ZM636.209 38L640.133 30.08H635.753V29.06H641.369V30.08L637.481 38H636.209ZM644.93 38V29.06H647.858C648.762 29.06 649.55 29.244 650.222 29.612C650.894 29.98 651.414 30.5 651.782 31.172C652.15 31.836 652.334 32.62 652.334 33.524C652.334 34.42 652.15 35.204 651.782 35.876C651.414 36.548 650.894 37.072 650.222 37.448C649.55 37.816 648.762 38 647.858 38H644.93ZM646.106 36.92H647.87C648.534 36.92 649.106 36.78 649.586 36.5C650.074 36.22 650.45 35.828 650.714 35.324C650.978 34.812 651.11 34.212 651.11 33.524C651.11 32.828 650.974 32.228 650.702 31.724C650.438 31.22 650.062 30.832 649.574 30.56C649.094 30.28 648.526 30.14 647.87 30.14H646.106V36.92ZM655.506 38.144C655.082 38.144 654.706 38.068 654.378 37.916C654.058 37.756 653.806 37.54 653.622 37.268C653.438 36.988 653.346 36.668 653.346 36.308C653.346 35.964 653.418 35.656 653.562 35.384C653.714 35.104 653.946 34.868 654.258 34.676C654.578 34.484 654.978 34.348 655.458 34.268L657.858 33.872V34.808L655.71 35.168C655.294 35.24 654.99 35.372 654.798 35.564C654.614 35.756 654.522 35.992 654.522 36.272C654.522 36.536 654.626 36.756 654.834 36.932C655.05 37.108 655.318 37.196 655.638 37.196C656.046 37.196 656.398 37.112 656.694 36.944C656.998 36.768 657.234 36.532 657.402 36.236C657.578 35.94 657.666 35.612 657.666 35.252V33.608C657.666 33.256 657.534 32.972 657.27 32.756C657.014 32.532 656.674 32.42 656.25 32.42C655.882 32.42 655.554 32.516 655.266 32.708C654.986 32.892 654.778 33.14 654.642 33.452L653.67 32.948C653.79 32.652 653.982 32.388 654.246 32.156C654.51 31.916 654.818 31.728 655.17 31.592C655.522 31.456 655.89 31.388 656.274 31.388C656.77 31.388 657.206 31.484 657.582 31.676C657.958 31.86 658.25 32.12 658.458 32.456C658.674 32.784 658.782 33.168 658.782 33.608V38H657.69V36.776L657.894 36.848C657.758 37.104 657.574 37.328 657.342 37.52C657.11 37.712 656.838 37.864 656.526 37.976C656.214 38.088 655.874 38.144 655.506 38.144ZM660.86 40.64C660.716 40.64 660.572 40.628 660.428 40.604C660.284 40.588 660.148 40.552 660.02 40.496V39.5C660.108 39.508 660.216 39.524 660.344 39.548C660.48 39.572 660.612 39.584 660.74 39.584C661.116 39.584 661.4 39.5 661.592 39.332C661.792 39.164 661.98 38.88 662.156 38.48L662.564 37.508L662.54 38.48L659.78 31.532H660.992L663.14 37.052H662.78L664.916 31.532H666.152L663.236 38.768C663.1 39.112 662.924 39.428 662.708 39.716C662.5 40.004 662.244 40.228 661.94 40.388C661.636 40.556 661.276 40.64 660.86 40.64ZM669.461 38.144C668.813 38.144 668.249 37.984 667.769 37.664C667.289 37.344 666.949 36.912 666.749 36.368L667.637 35.936C667.821 36.32 668.073 36.624 668.393 36.848C668.713 37.072 669.069 37.184 669.461 37.184C669.813 37.184 670.105 37.1 670.337 36.932C670.569 36.764 670.685 36.544 670.685 36.272C670.685 36.08 670.629 35.928 670.517 35.816C670.413 35.696 670.285 35.604 670.133 35.54C669.981 35.468 669.841 35.416 669.713 35.384L668.741 35.108C668.157 34.94 667.729 34.7 667.457 34.388C667.193 34.076 667.061 33.712 667.061 33.296C667.061 32.912 667.157 32.58 667.349 32.3C667.549 32.012 667.817 31.788 668.153 31.628C668.497 31.468 668.881 31.388 669.305 31.388C669.873 31.388 670.381 31.532 670.829 31.82C671.285 32.108 671.609 32.512 671.801 33.032L670.889 33.452C670.745 33.116 670.529 32.852 670.241 32.66C669.953 32.46 669.629 32.36 669.269 32.36C668.941 32.36 668.681 32.444 668.489 32.612C668.297 32.772 668.201 32.976 668.201 33.224C668.201 33.408 668.249 33.56 668.345 33.68C668.441 33.792 668.557 33.88 668.693 33.944C668.829 34 668.961 34.048 669.089 34.088L670.145 34.4C670.673 34.552 671.081 34.788 671.369 35.108C671.665 35.428 671.813 35.812 671.813 36.26C671.813 36.62 671.713 36.944 671.513 37.232C671.313 37.52 671.037 37.744 670.685 37.904C670.333 38.064 669.925 38.144 669.461 38.144Z" fill="#28A263"/>
<line opacity="0.05" x1="38.0107" y1="179.969" x2="680.716" y2="179.969" stroke="white" stroke-width="0.454552" stroke-dasharray="2.41 2.41"/>
<line opacity="0.05" y1="-0.227276" x2="643.512" y2="-0.227276" transform="matrix(1 -0.000326124 0.0026494 0.999996 37.2031 156.652)" stroke="white" stroke-width="0.454552" stroke-dasharray="2.41 2.41"/>
<line opacity="0.05" x1="37.2031" y1="133.019" x2="680.715" y2="133.019" stroke="white" stroke-width="0.454552" stroke-dasharray="2.41 2.41"/>
<line opacity="0.05" y1="-0.227276" x2="643.512" y2="-0.227276" transform="matrix(1 0.000321723 -0.00261364 0.999997 37.2031 109.842)" stroke="white" stroke-width="0.454552" stroke-dasharray="2.41 2.41"/>
<line opacity="0.05" y1="-0.227276" x2="643.512" y2="-0.227276" transform="matrix(1 -0.000217658 0.00176824 0.999998 37.2031 86.4363)" stroke="white" stroke-width="0.454552" stroke-dasharray="2.41 2.41"/>
<line opacity="0.05" y1="-0.227276" x2="643.512" y2="-0.227276" transform="matrix(1 -0.000217658 0.00176824 0.999998 39.4883 62.3838)" stroke="white" stroke-width="0.454552" stroke-dasharray="2.41 2.41"/>
<g opacity="0.7">
<path opacity="0.7" d="M20.7249 86.3474C20.648 86.3474 20.5881 86.3282 20.5453 86.2897C20.5026 86.2469 20.4812 86.1892 20.4812 86.1165C20.4812 86.0438 20.5026 85.9904 20.5453 85.9562C20.5881 85.9177 20.648 85.8984 20.7249 85.8984H21.5588V82.2617H21.8346L20.9045 82.8774C20.8489 82.9073 20.7955 82.9202 20.7442 82.9159C20.6971 82.9116 20.6565 82.8945 20.6223 82.8646C20.5924 82.8304 20.571 82.7919 20.5582 82.7491C20.5453 82.7021 20.5475 82.6551 20.5646 82.608C20.5817 82.5567 20.618 82.5139 20.6736 82.4797L21.5588 81.8961C21.6144 81.8618 21.6678 81.8341 21.7191 81.8127C21.7704 81.7913 21.8217 81.7806 21.8731 81.7806C21.9329 81.7806 21.9821 81.7998 22.0206 81.8383C22.0633 81.8725 22.0847 81.9281 22.0847 82.0051V85.8984H22.8544C22.9314 85.8984 22.9912 85.9177 23.034 85.9562C23.0768 85.9904 23.0981 86.0438 23.0981 86.1165C23.0981 86.1935 23.0768 86.2512 23.034 86.2897C22.9912 86.3282 22.9314 86.3474 22.8544 86.3474H20.7249ZM25.5009 86.4051C24.9835 86.4051 24.5901 86.2063 24.3207 85.8086C24.0513 85.411 23.9166 84.8358 23.9166 84.0832C23.9166 83.5787 23.9765 83.1553 24.0962 82.8133C24.216 82.4669 24.3934 82.2061 24.6286 82.0307C24.8681 81.8554 25.1588 81.7678 25.5009 81.7678C26.0226 81.7678 26.416 81.9645 26.6811 82.3579C26.9505 82.747 27.0852 83.32 27.0852 84.0768C27.0852 84.5814 27.0253 85.0069 26.9056 85.3532C26.7859 85.6996 26.6084 85.9626 26.3732 86.1422C26.138 86.3175 25.8473 86.4051 25.5009 86.4051ZM25.5009 85.9497C25.8601 85.9497 26.1252 85.7979 26.2963 85.4943C26.4716 85.1865 26.5592 84.714 26.5592 84.0768C26.5592 83.4354 26.4716 82.9672 26.2963 82.6722C26.1252 82.3728 25.8601 82.2232 25.5009 82.2232C25.146 82.2232 24.8809 82.3728 24.7056 82.6722C24.5302 82.9715 24.4426 83.4397 24.4426 84.0768C24.4426 84.714 24.5302 85.1865 24.7056 85.4943C24.8809 85.7979 25.146 85.9497 25.5009 85.9497ZM29.3468 86.4051C28.8294 86.4051 28.436 86.2063 28.1667 85.8086C27.8973 85.411 27.7626 84.8358 27.7626 84.0832C27.7626 83.5787 27.8224 83.1553 27.9422 82.8133C28.0619 82.4669 28.2393 82.2061 28.4745 82.0307C28.714 81.8554 29.0048 81.7678 29.3468 81.7678C29.8685 81.7678 30.2619 81.9645 30.527 82.3579C30.7964 82.747 30.9311 83.32 30.9311 84.0768C30.9311 84.5814 30.8713 85.0069 30.7515 85.3532C30.6318 85.6996 30.4543 85.9626 30.2192 86.1422C29.984 86.3175 29.6932 86.4051 29.3468 86.4051ZM29.3468 85.9497C29.706 85.9497 29.9711 85.7979 30.1422 85.4943C30.3175 85.1865 30.4052 84.714 30.4052 84.0768C30.4052 83.4354 30.3175 82.9672 30.1422 82.6722C29.9711 82.3728 29.706 82.2232 29.3468 82.2232C28.9919 82.2232 28.7268 82.3728 28.5515 82.6722C28.3762 82.9715 28.2885 83.4397 28.2885 84.0768C28.2885 84.714 28.3762 85.1865 28.5515 85.4943C28.7268 85.7979 28.9919 85.9497 29.3468 85.9497Z" fill="white"/>
<path opacity="0.7" d="M21.5267 66.3298C21.4497 66.3298 21.3899 66.3106 21.3471 66.2721C21.3043 66.2293 21.283 66.1716 21.283 66.0989C21.283 66.0262 21.3043 65.9728 21.3471 65.9386C21.3899 65.9001 21.4497 65.8808 21.5267 65.8808H22.3605V62.2441H22.6363L21.7063 62.8598C21.6507 62.8898 21.5973 62.9026 21.5459 62.8983C21.4989 62.894 21.4583 62.8769 21.4241 62.847C21.3941 62.8128 21.3728 62.7743 21.3599 62.7315C21.3471 62.6845 21.3492 62.6375 21.3663 62.5904C21.3834 62.5391 21.4198 62.4964 21.4754 62.4622L22.3605 61.8785C22.4161 61.8443 22.4696 61.8165 22.5209 61.7951C22.5722 61.7737 22.6235 61.763 22.6748 61.763C22.7347 61.763 22.7839 61.7823 22.8223 61.8207C22.8651 61.855 22.8865 61.9105 22.8865 61.9875V65.8808H23.6562C23.7331 65.8808 23.793 65.9001 23.8358 65.9386C23.8785 65.9728 23.8999 66.0262 23.8999 66.0989C23.8999 66.1759 23.8785 66.2336 23.8358 66.2721C23.793 66.3106 23.7331 66.3298 23.6562 66.3298H21.5267ZM25.2059 66.3298C25.1118 66.3298 25.0412 66.3085 24.9942 66.2657C24.9514 66.2187 24.9301 66.1567 24.9301 66.0797C24.9301 66.0326 24.9407 65.9878 24.9621 65.945C24.9878 65.898 25.022 65.8509 25.0648 65.8039L26.5015 64.2645C26.7196 64.0293 26.8757 63.8134 26.9697 63.6167C27.0681 63.4157 27.1173 63.2126 27.1173 63.0073C27.1173 62.7508 27.0381 62.5562 26.8799 62.4237C26.726 62.2868 26.4994 62.2184 26.2 62.2184C26.0076 62.2184 25.8259 62.2484 25.6548 62.3082C25.4838 62.3681 25.3192 62.46 25.161 62.584C25.1054 62.6268 25.0541 62.646 25.007 62.6417C24.9643 62.6375 24.9258 62.6204 24.8916 62.5904C24.8574 62.5605 24.8338 62.522 24.821 62.475C24.8082 62.4279 24.8082 62.3809 24.821 62.3339C24.8381 62.2868 24.8723 62.2441 24.9236 62.2056C25.0904 62.0688 25.2914 61.9597 25.5266 61.8785C25.7617 61.793 26.0012 61.7502 26.2449 61.7502C26.5485 61.7502 26.8051 61.7972 27.0146 61.8913C27.2242 61.9854 27.3824 62.1243 27.4893 62.3082C27.5962 62.4878 27.6496 62.708 27.6496 62.9689C27.6496 63.1485 27.6197 63.3259 27.5598 63.5012C27.5042 63.6723 27.4166 63.8476 27.2968 64.0272C27.1814 64.2068 27.0296 64.3928 26.8414 64.5852L25.4753 66.0284V65.8808H27.6368C27.718 65.8808 27.7779 65.9001 27.8164 65.9386C27.8591 65.9728 27.8805 66.0262 27.8805 66.0989C27.8805 66.1759 27.8591 66.2336 27.8164 66.2721C27.7779 66.3106 27.718 66.3298 27.6368 66.3298H25.2059ZM30.1486 66.3876C29.6312 66.3876 29.2378 66.1887 28.9684 65.7911C28.699 65.3934 28.5643 64.8183 28.5643 64.0657C28.5643 63.5611 28.6242 63.1378 28.7439 62.7957C28.8636 62.4493 29.0411 62.1885 29.2763 62.0132C29.5157 61.8379 29.8065 61.7502 30.1486 61.7502C30.6703 61.7502 31.0637 61.9469 31.3288 62.3403C31.5982 62.7294 31.7329 63.3024 31.7329 64.0593C31.7329 64.5638 31.673 64.9893 31.5533 65.3357C31.4335 65.682 31.2561 65.945 31.0209 66.1246C30.7857 66.2999 30.495 66.3876 30.1486 66.3876ZM30.1486 65.9322C30.5078 65.9322 30.7729 65.7804 30.9439 65.4768C31.1193 65.1689 31.2069 64.6964 31.2069 64.0593C31.2069 63.4178 31.1193 62.9496 30.9439 62.6546C30.7729 62.3553 30.5078 62.2056 30.1486 62.2056C29.7937 62.2056 29.5286 62.3553 29.3533 62.6546C29.1779 62.9539 29.0903 63.4221 29.0903 64.0593C29.0903 64.6964 29.1779 65.1689 29.3533 65.4768C29.5286 65.7804 29.7937 65.9322 30.1486 65.9322Z" fill="white"/>
<path opacity="0.7" d="M25.5009 106.423C25.1631 106.423 24.8723 106.374 24.6286 106.275C24.3891 106.177 24.2053 106.034 24.077 105.845C23.953 105.657 23.891 105.431 23.891 105.166C23.891 104.956 23.9337 104.77 24.0193 104.608C24.1048 104.441 24.2245 104.306 24.3784 104.203C24.5324 104.101 24.7098 104.037 24.9108 104.011V104.107C24.6329 104.047 24.4105 103.917 24.2438 103.716C24.0813 103.511 24 103.269 24 102.991C24 102.735 24.0599 102.519 24.1796 102.343C24.3036 102.164 24.4789 102.027 24.7056 101.933C24.9322 101.835 25.1973 101.785 25.5009 101.785C25.8088 101.785 26.0739 101.835 26.2963 101.933C26.5229 102.027 26.6982 102.164 26.8222 102.343C26.9462 102.519 27.0082 102.735 27.0082 102.991C27.0082 103.175 26.9697 103.346 26.8928 103.504C26.8201 103.658 26.7153 103.787 26.5785 103.889C26.4416 103.992 26.2813 104.062 26.0974 104.101V104.011C26.401 104.054 26.6448 104.18 26.8286 104.389C27.0168 104.595 27.1108 104.853 27.1108 105.166C27.1108 105.431 27.0467 105.657 26.9184 105.845C26.7944 106.034 26.6105 106.177 26.3668 106.275C26.1273 106.374 25.8387 106.423 25.5009 106.423ZM25.5009 105.987C25.8644 105.987 26.138 105.916 26.3219 105.775C26.5101 105.634 26.6041 105.42 26.6041 105.133C26.6041 104.851 26.5101 104.642 26.3219 104.505C26.138 104.364 25.8644 104.293 25.5009 104.293C25.1417 104.293 24.8681 104.364 24.6799 104.505C24.4918 104.642 24.3977 104.851 24.3977 105.133C24.3977 105.42 24.4918 105.634 24.6799 105.775C24.8681 105.916 25.1417 105.987 25.5009 105.987ZM25.5009 103.857C25.7104 103.857 25.8879 103.825 26.0333 103.761C26.1829 103.692 26.2984 103.596 26.3796 103.472C26.4609 103.348 26.5015 103.203 26.5015 103.036C26.5015 102.78 26.4117 102.581 26.2321 102.44C26.0568 102.294 25.8131 102.222 25.5009 102.222C25.1888 102.222 24.945 102.294 24.7697 102.44C24.5944 102.581 24.5067 102.78 24.5067 103.036C24.5067 103.293 24.5944 103.494 24.7697 103.639C24.945 103.784 25.1888 103.857 25.5009 103.857ZM29.3468 106.423C28.8294 106.423 28.436 106.224 28.1667 105.826C27.8973 105.429 27.7626 104.853 27.7626 104.101C27.7626 103.596 27.8224 103.173 27.9422 102.831C28.0619 102.484 28.2393 102.224 28.4745 102.048C28.714 101.873 29.0048 101.785 29.3468 101.785C29.8685 101.785 30.2619 101.982 30.527 102.375C30.7964 102.765 30.9311 103.338 30.9311 104.094C30.9311 104.599 30.8713 105.024 30.7515 105.371C30.6318 105.717 30.4543 105.98 30.2192 106.16C29.984 106.335 29.6932 106.423 29.3468 106.423ZM29.3468 105.967C29.706 105.967 29.9711 105.816 30.1422 105.512C30.3175 105.204 30.4052 104.732 30.4052 104.094C30.4052 103.453 30.3175 102.985 30.1422 102.69C29.9711 102.39 29.706 102.241 29.3468 102.241C28.9919 102.241 28.7268 102.39 28.5515 102.69C28.3762 102.989 28.2885 103.457 28.2885 104.094C28.2885 104.732 28.3762 105.204 28.5515 105.512C28.7268 105.816 28.9919 105.967 29.3468 105.967Z" fill="white"/>
<path opacity="0.7" d="M25.6548 125.639C25.2999 125.639 24.9963 125.553 24.7441 125.382C24.496 125.207 24.3079 124.954 24.1796 124.625C24.0513 124.296 23.9872 123.898 23.9872 123.432C23.9872 123.039 24.0278 122.692 24.1091 122.393C24.1903 122.094 24.31 121.841 24.4682 121.636C24.6265 121.427 24.8189 121.268 25.0455 121.162C25.2721 121.055 25.5287 121.001 25.8152 121.001C26.0119 121.001 26.2129 121.04 26.4181 121.117C26.6276 121.194 26.8115 121.303 26.9697 121.444C27.0168 121.478 27.0446 121.521 27.0531 121.572C27.0659 121.619 27.0659 121.666 27.0531 121.713C27.0403 121.756 27.0168 121.792 26.9826 121.822C26.9526 121.852 26.9141 121.869 26.8671 121.873C26.8201 121.873 26.7709 121.854 26.7196 121.816C26.5742 121.692 26.4245 121.604 26.2706 121.553C26.1167 121.497 25.9606 121.469 25.8024 121.469C25.5244 121.469 25.2871 121.538 25.0904 121.675C24.898 121.811 24.7505 122.019 24.6478 122.297C24.5495 122.57 24.5003 122.915 24.5003 123.329V123.926H24.4426C24.4682 123.682 24.5388 123.473 24.6543 123.297C24.774 123.118 24.9258 122.981 25.1097 122.887C25.2935 122.793 25.5009 122.746 25.7318 122.746C25.9969 122.746 26.2321 122.806 26.4374 122.925C26.6426 123.045 26.803 123.214 26.9184 123.432C27.0339 123.646 27.0916 123.892 27.0916 124.17C27.0916 124.452 27.0317 124.704 26.912 124.927C26.7923 125.149 26.6234 125.324 26.4053 125.453C26.1872 125.577 25.9371 125.639 25.6548 125.639ZM25.6228 125.19C25.8109 125.19 25.9777 125.149 26.1231 125.068C26.2685 124.982 26.3818 124.865 26.463 124.715C26.5443 124.561 26.5849 124.386 26.5849 124.189C26.5849 123.992 26.5443 123.819 26.463 123.669C26.3818 123.52 26.2685 123.402 26.1231 123.317C25.9777 123.231 25.8109 123.188 25.6228 123.188C25.4346 123.188 25.2679 123.231 25.1225 123.317C24.9771 123.402 24.8638 123.52 24.7825 123.669C24.7013 123.819 24.6607 123.992 24.6607 124.189C24.6607 124.386 24.7013 124.561 24.7825 124.715C24.8638 124.865 24.9771 124.982 25.1225 125.068C25.2679 125.149 25.4346 125.19 25.6228 125.19ZM29.3468 125.639C28.8294 125.639 28.436 125.44 28.1667 125.042C27.8973 124.644 27.7626 124.069 27.7626 123.317C27.7626 122.812 27.8224 122.389 27.9422 122.047C28.0619 121.7 28.2393 121.439 28.4745 121.264C28.714 121.089 29.0048 121.001 29.3468 121.001C29.8685 121.001 30.2619 121.198 30.527 121.591C30.7964 121.98 30.9311 122.553 30.9311 123.31C30.9311 123.815 30.8713 124.24 30.7515 124.587C30.6318 124.933 30.4543 125.196 30.2192 125.376C29.984 125.551 29.6932 125.639 29.3468 125.639ZM29.3468 125.183C29.706 125.183 29.9711 125.031 30.1422 124.728C30.3175 124.42 30.4052 123.947 30.4052 123.31C30.4052 122.669 30.3175 122.201 30.1422 121.906C29.9711 121.606 29.706 121.457 29.3468 121.457C28.9919 121.457 28.7268 121.606 28.5515 121.906C28.3762 122.205 28.2885 122.673 28.2885 123.31C28.2885 123.947 28.3762 124.42 28.5515 124.728C28.7268 125.031 28.9919 125.183 29.3468 125.183Z" fill="white"/>
<path opacity="0.7" d="M26.2578 144.842C26.1765 144.842 26.1124 144.818 26.0653 144.771C26.0183 144.724 25.9948 144.658 25.9948 144.572V143.828H24.154C24.0684 143.828 24 143.809 23.9487 143.77C23.9017 143.728 23.8782 143.668 23.8782 143.591C23.8782 143.544 23.8888 143.497 23.9102 143.45C23.9316 143.398 23.9701 143.334 24.0257 143.257L25.982 140.409C26.0204 140.35 26.0632 140.305 26.1102 140.275C26.1573 140.245 26.2129 140.23 26.277 140.23C26.3454 140.23 26.4032 140.251 26.4502 140.294C26.5015 140.337 26.5272 140.405 26.5272 140.499V143.379H26.9954C27.0766 143.379 27.1386 143.398 27.1814 143.437C27.2242 143.475 27.2455 143.531 27.2455 143.604C27.2455 143.676 27.2242 143.732 27.1814 143.77C27.1386 143.809 27.0766 143.828 26.9954 143.828H26.5272V144.572C26.5272 144.658 26.5036 144.724 26.4566 144.771C26.4096 144.818 26.3433 144.842 26.2578 144.842ZM25.9948 143.379V140.89H26.1487L24.3528 143.52V143.379H25.9948ZM29.3468 144.854C28.8294 144.854 28.436 144.656 28.1667 144.258C27.8973 143.86 27.7626 143.285 27.7626 142.532C27.7626 142.028 27.8224 141.605 27.9422 141.262C28.0619 140.916 28.2393 140.655 28.4745 140.48C28.714 140.305 29.0048 140.217 29.3468 140.217C29.8685 140.217 30.2619 140.414 30.527 140.807C30.7964 141.196 30.9311 141.769 30.9311 142.526C30.9311 143.031 30.8713 143.456 30.7515 143.802C30.6318 144.149 30.4543 144.412 30.2192 144.591C29.984 144.767 29.6932 144.854 29.3468 144.854ZM29.3468 144.399C29.706 144.399 29.9711 144.247 30.1422 143.944C30.3175 143.636 30.4052 143.163 30.4052 142.526C30.4052 141.885 30.3175 141.416 30.1422 141.121C29.9711 140.822 29.706 140.672 29.3468 140.672C28.9919 140.672 28.7268 140.822 28.5515 141.121C28.3762 141.421 28.2885 141.889 28.2885 142.526C28.2885 143.163 28.3762 143.636 28.5515 143.944C28.7268 144.247 28.9919 144.399 29.3468 144.399Z" fill="white"/>
<path opacity="0.7" d="M24.4041 164.012C24.31 164.012 24.2395 163.991 24.1924 163.948C24.1497 163.901 24.1283 163.839 24.1283 163.762C24.1283 163.715 24.139 163.67 24.1604 163.628C24.186 163.581 24.2202 163.534 24.263 163.486L25.6997 161.947C25.9178 161.712 26.0739 161.496 26.168 161.299C26.2663 161.098 26.3155 160.895 26.3155 160.69C26.3155 160.433 26.2364 160.239 26.0782 160.106C25.9242 159.969 25.6976 159.901 25.3983 159.901C25.2059 159.901 25.0241 159.931 24.8531 159.991C24.682 160.051 24.5174 160.143 24.3592 160.267C24.3036 160.309 24.2523 160.329 24.2053 160.324C24.1625 160.32 24.124 160.303 24.0898 160.273C24.0556 160.243 24.0321 160.205 24.0193 160.158C24.0064 160.111 24.0064 160.064 24.0193 160.016C24.0364 159.969 24.0706 159.927 24.1219 159.888C24.2887 159.751 24.4896 159.642 24.7248 159.561C24.96 159.476 25.1994 159.433 25.4432 159.433C25.7468 159.433 26.0033 159.48 26.2129 159.574C26.4224 159.668 26.5806 159.807 26.6875 159.991C26.7944 160.17 26.8479 160.391 26.8479 160.651C26.8479 160.831 26.8179 161.009 26.7581 161.184C26.7025 161.355 26.6148 161.53 26.4951 161.71C26.3796 161.889 26.2278 162.075 26.0397 162.268L24.6735 163.711V163.563H26.835C26.9163 163.563 26.9761 163.583 27.0146 163.621C27.0574 163.655 27.0788 163.709 27.0788 163.782C27.0788 163.859 27.0574 163.916 27.0146 163.955C26.9761 163.993 26.9163 164.012 26.835 164.012H24.4041ZM29.3468 164.07C28.8294 164.07 28.436 163.871 28.1667 163.474C27.8973 163.076 27.7626 162.501 27.7626 161.748C27.7626 161.244 27.8224 160.82 27.9422 160.478C28.0619 160.132 28.2393 159.871 28.4745 159.696C28.714 159.52 29.0048 159.433 29.3468 159.433C29.8685 159.433 30.2619 159.63 30.527 160.023C30.7964 160.412 30.9311 160.985 30.9311 161.742C30.9311 162.246 30.8713 162.672 30.7515 163.018C30.6318 163.365 30.4543 163.628 30.2192 163.807C29.984 163.983 29.6932 164.07 29.3468 164.07ZM29.3468 163.615C29.706 163.615 29.9711 163.463 30.1422 163.159C30.3175 162.852 30.4052 162.379 30.4052 161.742C30.4052 161.1 30.3175 160.632 30.1422 160.337C29.9711 160.038 29.706 159.888 29.3468 159.888C28.9919 159.888 28.7268 160.038 28.5515 160.337C28.3762 160.637 28.2885 161.105 28.2885 161.742C28.2885 162.379 28.3762 162.852 28.5515 163.159C28.7268 163.463 28.9919 163.615 29.3468 163.615Z" fill="white"/>
<path opacity="0.7" d="M28.5451 183.286C28.0277 183.286 27.6343 183.087 27.3649 182.689C27.0955 182.292 26.9608 181.717 26.9608 180.964C26.9608 180.46 27.0207 180.036 27.1404 179.694C27.2601 179.348 27.4376 179.087 27.6728 178.912C27.9122 178.736 28.203 178.649 28.5451 178.649C29.0668 178.649 29.4602 178.845 29.7253 179.239C29.9947 179.628 30.1294 180.201 30.1294 180.958C30.1294 181.462 30.0695 181.888 29.9498 182.234C29.83 182.58 29.6526 182.843 29.4174 183.023C29.1822 183.198 28.8914 183.286 28.5451 183.286ZM28.5451 182.831C28.9043 182.831 29.1694 182.679 29.3404 182.375C29.5157 182.067 29.6034 181.595 29.6034 180.958C29.6034 180.316 29.5157 179.848 29.3404 179.553C29.1694 179.254 28.9043 179.104 28.5451 179.104C28.1902 179.104 27.9251 179.254 27.7497 179.553C27.5744 179.852 27.4868 180.321 27.4868 180.958C27.4868 181.595 27.5744 182.067 27.7497 182.375C27.9251 182.679 28.1902 182.831 28.5451 182.831Z" fill="white"/>
</g>
<g filter="url(#filter0_d_108_4956)">
<path d="M92.3271 96.5529L98.9223 99.4875C105.556 102.312 118.939 108.346 132.052 112.652C145.204 117.123 158.279 119.865 171.777 114.106C184.891 108.346 198.004 93.536 211.503 93.6183C224.577 93.536 237.729 108.346 250.842 112.652C264.225 117.123 277.454 111.089 290.567 114.106C303.912 117.123 317.179 128.642 330.292 124.336C343.56 119.865 356.904 99.5698 370.017 100.941C383.246 102.312 396.629 113.016 409.743 124.618C422.894 136.329 435.969 136.329 449.468 129.006C464.414 121.997 471.711 119.255 487.784 115.394C504.738 111.851 515.419 117.123 528.532 111.171C541.915 105.329 555.144 87.7764 568.257 84.8418C581.602 82.0169 594.869 93.536 607.983 95.0993C621.25 96.5529 634.595 87.7764 641.151 83.3882L647.708 79" stroke="#28A263" stroke-width="1.81821" stroke-linecap="round"/>
</g>
<g filter="url(#filter1_d_108_4956)">
<ellipse cx="368.241" cy="101.212" rx="3.24063" ry="3.21246" fill="white"/>
<path d="M370.799 101.212C370.799 102.604 369.659 103.743 368.241 103.743C366.822 103.743 365.682 102.604 365.682 101.212C365.682 99.8204 366.822 98.6818 368.241 98.6818C369.659 98.6818 370.799 99.8204 370.799 101.212Z" stroke="#28A263" stroke-width="1.36366"/>
</g>
<g filter="url(#filter2_d_108_4956)">
<ellipse cx="189.241" cy="103.212" rx="3.24063" ry="3.21246" fill="white"/>
<path d="M191.799 103.212C191.799 104.604 190.659 105.743 189.241 105.743C187.822 105.743 186.682 104.604 186.682 103.212C186.682 101.82 187.822 100.682 189.241 100.682C190.659 100.682 191.799 101.82 191.799 103.212Z" stroke="#28A263" stroke-width="1.36366"/>
</g>
<g filter="url(#filter3_d_108_4956)">
<path fill-rule="evenodd" clip-rule="evenodd" d="M155.162 20C151.829 20 149.127 22.7022 149.127 26.0355V48.0883C149.127 51.4217 151.829 54.1239 155.162 54.1239H184.272C184.336 54.1239 184.394 54.1583 184.435 54.2066L188.625 59.0759C188.865 59.3558 189.299 59.3558 189.54 59.0759L193.729 54.2066C193.771 54.1583 193.828 54.1239 193.892 54.1239H223.908C227.241 54.1239 229.943 51.4217 229.943 48.0883V26.0355C229.943 22.7022 227.241 20 223.908 20H155.162Z" fill="#141414"/>
</g>
<path opacity="0.8" d="M177.351 35.1835V27.4867H177.844V35.1835H177.351ZM178.659 30.0273C178.635 29.7847 178.531 29.5963 178.349 29.462C178.167 29.3277 177.919 29.2606 177.606 29.2606C177.394 29.2606 177.215 29.2906 177.068 29.3508C176.922 29.4089 176.81 29.4901 176.731 29.5943C176.655 29.6985 176.617 29.8168 176.617 29.9491C176.613 30.0593 176.636 30.1555 176.686 30.2377C176.738 30.3199 176.81 30.391 176.9 30.4512C176.99 30.5093 177.094 30.5604 177.213 30.6045C177.331 30.6466 177.457 30.6827 177.591 30.7127L178.145 30.845C178.413 30.9052 178.66 30.9853 178.884 31.0856C179.109 31.1858 179.303 31.309 179.467 31.4554C179.632 31.6017 179.759 31.7741 179.849 31.9725C179.941 32.1709 179.989 32.3984 179.991 32.655C179.989 33.0318 179.892 33.3585 179.702 33.6351C179.514 33.9097 179.241 34.1232 178.884 34.2755C178.529 34.4258 178.101 34.501 177.6 34.501C177.103 34.501 176.67 34.4248 176.302 34.2725C175.935 34.1202 175.648 33.8947 175.442 33.596C175.237 33.2954 175.13 32.9236 175.12 32.4806H176.38C176.394 32.6871 176.453 32.8594 176.557 32.9977C176.663 33.134 176.805 33.2373 176.981 33.3074C177.159 33.3756 177.361 33.4096 177.585 33.4096C177.806 33.4096 177.997 33.3776 178.16 33.3134C178.324 33.2493 178.451 33.1601 178.541 33.0458C178.632 32.9316 178.677 32.8003 178.677 32.652C178.677 32.5137 178.636 32.3974 178.553 32.3032C178.473 32.209 178.355 32.1288 178.199 32.0627C178.044 31.9965 177.855 31.9364 177.63 31.8823L176.96 31.7139C176.441 31.5877 176.031 31.3902 175.73 31.1216C175.43 30.8531 175.28 30.4913 175.282 30.0363C175.28 29.6635 175.38 29.3377 175.58 29.0591C175.782 28.7805 176.06 28.5631 176.413 28.4067C176.766 28.2504 177.166 28.1722 177.615 28.1722C178.072 28.1722 178.471 28.2504 178.812 28.4067C179.155 28.5631 179.421 28.7805 179.612 29.0591C179.802 29.3377 179.9 29.6605 179.906 30.0273H178.659ZM180.737 33.3315V32.3062L183.308 28.2564H184.191V29.6755H183.668L182.048 32.2401V32.2882H185.701V33.3315H180.737ZM183.692 34.4138V33.0188L183.716 32.5648V28.2564H184.937V34.4138H183.692ZM187.856 33.572L187.823 33.9027C187.797 34.1673 187.747 34.4309 187.673 34.6934C187.601 34.958 187.525 35.1975 187.445 35.412C187.366 35.6265 187.303 35.7948 187.255 35.9171H186.425C186.455 35.7988 186.496 35.6335 186.549 35.421C186.601 35.2106 186.65 34.974 186.696 34.7115C186.742 34.4489 186.771 34.1813 186.783 33.9087L186.798 33.572H187.856ZM190.925 28.2564V34.4138H189.624V29.4921H189.587L188.177 30.376V29.2215L189.702 28.2564H190.925ZM194.803 34.5491C194.286 34.5471 193.841 34.4198 193.468 34.1673C193.097 33.9147 192.812 33.5489 192.611 33.0699C192.413 32.5908 192.315 32.0146 192.317 31.3411C192.317 30.6697 192.416 30.0974 192.614 29.6244C192.815 29.1513 193.1 28.7916 193.471 28.545C193.844 28.2965 194.288 28.1722 194.803 28.1722C195.318 28.1722 195.761 28.2965 196.132 28.545C196.505 28.7936 196.791 29.1543 196.992 29.6274C197.192 30.0984 197.292 30.6697 197.29 31.3411C197.29 32.0166 197.189 32.5938 196.989 33.0729C196.79 33.5519 196.506 33.9177 196.135 34.1703C195.764 34.4228 195.32 34.5491 194.803 34.5491ZM194.803 33.4698C195.156 33.4698 195.437 33.2924 195.648 32.9376C195.858 32.5828 195.963 32.0507 195.961 31.3411C195.961 30.8741 195.913 30.4853 195.816 30.1746C195.722 29.8639 195.588 29.6304 195.413 29.474C195.241 29.3177 195.038 29.2395 194.803 29.2395C194.452 29.2395 194.172 29.4149 193.961 29.7657C193.751 30.1164 193.645 30.6416 193.643 31.3411C193.643 31.8141 193.69 32.209 193.784 32.5257C193.88 32.8404 194.015 33.0769 194.19 33.2352C194.364 33.3916 194.569 33.4698 194.803 33.4698ZM200.632 34.5491C200.115 34.5471 199.67 34.4198 199.297 34.1673C198.926 33.9147 198.641 33.5489 198.44 33.0699C198.242 32.5908 198.144 32.0146 198.146 31.3411C198.146 30.6697 198.245 30.0974 198.443 29.6244C198.644 29.1513 198.929 28.7916 199.3 28.545C199.673 28.2965 200.117 28.1722 200.632 28.1722C201.147 28.1722 201.59 28.2965 201.961 28.545C202.334 28.7936 202.62 29.1543 202.821 29.6274C203.021 30.0984 203.12 30.6697 203.118 31.3411C203.118 32.0166 203.018 32.5938 202.818 33.0729C202.619 33.5519 202.335 33.9177 201.964 34.1703C201.593 34.4228 201.149 34.5491 200.632 34.5491ZM200.632 33.4698C200.985 33.4698 201.266 33.2924 201.477 32.9376C201.687 32.5828 201.792 32.0507 201.79 31.3411C201.79 30.8741 201.741 30.4853 201.645 30.1746C201.551 29.8639 201.417 29.6304 201.242 29.474C201.07 29.3177 200.867 29.2395 200.632 29.2395C200.281 29.2395 200.001 29.4149 199.79 29.7657C199.58 30.1164 199.474 30.6416 199.472 31.3411C199.472 31.8141 199.519 32.209 199.613 32.5257C199.709 32.8404 199.844 33.0769 200.019 33.2352C200.193 33.3916 200.398 33.4698 200.632 33.4698Z" fill="#2DDB81"/>
<path opacity="0.7" d="M164.552 46.0442V41.5661H166.232C166.576 41.5661 166.864 41.6258 167.097 41.7454C167.332 41.8649 167.509 42.0325 167.629 42.2483C167.75 42.4626 167.81 42.7126 167.81 42.9983C167.81 43.2854 167.749 43.5347 167.627 43.7461C167.506 43.956 167.327 44.1185 167.091 44.2337C166.855 44.3474 166.565 44.4042 166.221 44.4042H165.025V43.7308H166.111C166.312 43.7308 166.477 43.7031 166.605 43.6477C166.734 43.5908 166.828 43.5085 166.89 43.4006C166.952 43.2913 166.984 43.1572 166.984 42.9983C166.984 42.8394 166.952 42.7038 166.89 42.5916C166.827 42.4779 166.732 42.3919 166.603 42.3336C166.475 42.2738 166.31 42.2439 166.107 42.2439H165.363V46.0442H164.552ZM166.866 44.015L167.974 46.0442H167.069L165.98 44.015H166.866ZM169.961 46.1098C169.624 46.1098 169.333 46.0398 169.088 45.8999C168.845 45.7585 168.658 45.5588 168.526 45.3007C168.395 45.0413 168.33 44.7359 168.33 44.3846C168.33 44.0391 168.395 43.7359 168.526 43.475C168.659 43.2126 168.844 43.0085 169.082 42.8627C169.319 42.7155 169.599 42.6419 169.919 42.6419C170.126 42.6419 170.322 42.6754 170.505 42.7424C170.69 42.808 170.854 42.9101 170.995 43.0486C171.138 43.187 171.25 43.3634 171.332 43.5777C171.413 43.7905 171.454 44.0442 171.454 44.3387V44.5814H168.701V44.0478H170.695C170.694 43.8962 170.661 43.7614 170.597 43.6433C170.533 43.5238 170.443 43.4298 170.328 43.3612C170.214 43.2927 170.082 43.2585 169.93 43.2585C169.768 43.2585 169.626 43.2978 169.504 43.3766C169.381 43.4538 169.286 43.5559 169.217 43.6827C169.15 43.808 169.116 43.9458 169.115 44.0959V44.5617C169.115 44.757 169.15 44.9247 169.222 45.0646C169.293 45.2031 169.393 45.3095 169.521 45.3838C169.65 45.4567 169.8 45.4932 169.972 45.4932C170.087 45.4932 170.191 45.4771 170.284 45.4451C170.378 45.4115 170.459 45.3627 170.527 45.2986C170.596 45.2344 170.647 45.155 170.682 45.0602L171.421 45.1433C171.375 45.3387 171.286 45.5092 171.155 45.655C171.025 45.7993 170.859 45.9115 170.656 45.9917C170.453 46.0704 170.222 46.1098 169.961 46.1098ZM175.028 42.6856L173.832 46.0442H172.957L171.761 42.6856H172.605L173.377 45.1805H173.412L174.186 42.6856H175.028ZM176.948 46.1098C176.611 46.1098 176.32 46.0398 176.076 45.8999C175.832 45.7585 175.645 45.5588 175.514 45.3007C175.382 45.0413 175.317 44.7359 175.317 44.3846C175.317 44.0391 175.382 43.7359 175.514 43.475C175.646 43.2126 175.831 43.0085 176.069 42.8627C176.307 42.7155 176.586 42.6419 176.906 42.6419C177.113 42.6419 177.309 42.6754 177.492 42.7424C177.678 42.808 177.841 42.9101 177.982 43.0486C178.125 43.187 178.237 43.3634 178.319 43.5777C178.401 43.7905 178.441 44.0442 178.441 44.3387V44.5814H175.689V44.0478H177.683C177.681 43.8962 177.648 43.7614 177.584 43.6433C177.52 43.5238 177.43 43.4298 177.315 43.3612C177.202 43.2927 177.069 43.2585 176.917 43.2585C176.756 43.2585 176.613 43.2978 176.491 43.3766C176.369 43.4538 176.273 43.5559 176.205 43.6827C176.137 43.808 176.103 43.9458 176.102 44.0959V44.5617C176.102 44.757 176.137 44.9247 176.209 45.0646C176.28 45.2031 176.38 45.3095 176.508 45.3838C176.637 45.4567 176.787 45.4932 176.959 45.4932C177.074 45.4932 177.178 45.4771 177.272 45.4451C177.365 45.4115 177.446 45.3627 177.514 45.2986C177.583 45.2344 177.635 45.155 177.67 45.0602L178.409 45.1433C178.362 45.3387 178.273 45.5092 178.142 45.655C178.012 45.7993 177.846 45.9115 177.643 45.9917C177.441 46.0704 177.209 46.1098 176.948 46.1098ZM179.903 44.0763V46.0442H179.111V42.6856H179.868V43.2563H179.907C179.984 43.0682 180.107 42.9188 180.277 42.808C180.447 42.6973 180.658 42.6419 180.908 42.6419C181.14 42.6419 181.342 42.6914 181.514 42.7905C181.688 42.8897 181.822 43.0333 181.916 43.2213C182.013 43.4094 182.06 43.6375 182.059 43.9057V46.0442H181.267V44.0282C181.267 43.8037 181.209 43.628 181.092 43.5012C180.977 43.3744 180.817 43.311 180.613 43.311C180.475 43.311 180.352 43.3416 180.244 43.4028C180.137 43.4626 180.053 43.5493 179.992 43.663C179.933 43.7767 179.903 43.9145 179.903 44.0763ZM185.004 44.6317V42.6856H185.795V46.0442H185.028V45.4473H184.993C184.917 45.6353 184.793 45.7891 184.619 45.9086C184.447 46.0282 184.235 46.0879 183.983 46.0879C183.763 46.0879 183.568 46.0391 183.399 45.9414C183.231 45.8423 183.1 45.6987 183.005 45.5107C182.911 45.3212 182.863 45.0923 182.863 44.8241V42.6856H183.655V44.7016C183.655 44.9145 183.713 45.0835 183.83 45.2089C183.946 45.3343 184.099 45.397 184.289 45.397C184.406 45.397 184.519 45.3685 184.628 45.3117C184.737 45.2548 184.827 45.1703 184.897 45.058C184.968 44.9443 185.004 44.8022 185.004 44.6317ZM188.096 46.1098C187.76 46.1098 187.469 46.0398 187.224 45.8999C186.98 45.7585 186.793 45.5588 186.662 45.3007C186.531 45.0413 186.465 44.7359 186.465 44.3846C186.465 44.0391 186.531 43.7359 186.662 43.475C186.795 43.2126 186.98 43.0085 187.217 42.8627C187.455 42.7155 187.734 42.6419 188.055 42.6419C188.262 42.6419 188.457 42.6754 188.641 42.7424C188.826 42.808 188.989 42.9101 189.131 43.0486C189.273 43.187 189.386 43.3634 189.467 43.5777C189.549 43.7905 189.59 44.0442 189.59 44.3387V44.5814H186.837V44.0478H188.831C188.83 43.8962 188.797 43.7614 188.733 43.6433C188.668 43.5238 188.579 43.4298 188.464 43.3612C188.35 43.2927 188.217 43.2585 188.066 43.2585C187.904 43.2585 187.762 43.2978 187.639 43.3766C187.517 43.4538 187.421 43.5559 187.353 43.6827C187.286 43.808 187.252 43.9458 187.25 44.0959V44.5617C187.25 44.757 187.286 44.9247 187.357 45.0646C187.429 45.2031 187.529 45.3095 187.657 45.3838C187.785 45.4567 187.935 45.4932 188.107 45.4932C188.222 45.4932 188.327 45.4771 188.42 45.4451C188.513 45.4115 188.594 45.3627 188.663 45.2986C188.731 45.2344 188.783 45.155 188.818 45.0602L189.557 45.1433C189.51 45.3387 189.421 45.5092 189.29 45.655C189.16 45.7993 188.994 45.9115 188.792 45.9917C188.589 46.0704 188.357 46.1098 188.096 46.1098ZM193.488 42.6856V43.2978H191.502V42.6856H193.488ZM191.999 46.0442V42.3685C191.999 42.1426 192.045 41.9545 192.139 41.8044C192.234 41.6543 192.36 41.542 192.519 41.4677C192.678 41.3933 192.854 41.3561 193.048 41.3561C193.185 41.3561 193.307 41.3671 193.414 41.3889C193.52 41.4108 193.599 41.4305 193.65 41.448L193.492 42.0602C193.459 42.05 193.416 42.0398 193.365 42.0296C193.314 42.018 193.258 42.0121 193.195 42.0121C193.048 42.0121 192.943 42.0478 192.882 42.1193C192.822 42.1892 192.793 42.2898 192.793 42.421V46.0442H191.999ZM195.447 46.1098C195.119 46.1098 194.834 46.0376 194.594 45.8933C194.353 45.749 194.167 45.5471 194.034 45.2876C193.903 45.0282 193.837 44.7249 193.837 44.378C193.837 44.0311 193.903 43.7271 194.034 43.4662C194.167 43.2053 194.353 43.0026 194.594 42.8583C194.834 42.714 195.119 42.6419 195.447 42.6419C195.775 42.6419 196.059 42.714 196.299 42.8583C196.54 43.0026 196.726 43.2053 196.857 43.4662C196.99 43.7271 197.056 44.0311 197.056 44.378C197.056 44.7249 196.99 45.0282 196.857 45.2876C196.726 45.5471 196.54 45.749 196.299 45.8933C196.059 46.0376 195.775 46.1098 195.447 46.1098ZM195.451 45.4757C195.629 45.4757 195.777 45.4268 195.897 45.3292C196.016 45.2301 196.105 45.0974 196.164 44.9312C196.223 44.765 196.253 44.5799 196.253 44.3758C196.253 44.1703 196.223 43.9844 196.164 43.8182C196.105 43.6506 196.016 43.5172 195.897 43.4181C195.777 43.319 195.629 43.2694 195.451 43.2694C195.269 43.2694 195.117 43.319 194.996 43.4181C194.877 43.5172 194.787 43.6506 194.727 43.8182C194.669 43.9844 194.64 44.1703 194.64 44.3758C194.64 44.5799 194.669 44.765 194.727 44.9312C194.787 45.0974 194.877 45.2301 194.996 45.3292C195.117 45.4268 195.269 45.4757 195.451 45.4757ZM197.728 46.0442V42.6856H198.495V43.2454H198.53C198.591 43.0515 198.696 42.9021 198.845 42.7971C198.995 42.6907 199.166 42.6375 199.359 42.6375C199.403 42.6375 199.451 42.6397 199.505 42.644C199.561 42.647 199.607 42.6521 199.643 42.6594V43.3875C199.61 43.3758 199.556 43.3656 199.483 43.3569C199.412 43.3467 199.343 43.3416 199.276 43.3416C199.131 43.3416 199.002 43.3729 198.887 43.4356C198.773 43.4968 198.683 43.5821 198.618 43.6914C198.552 43.8008 198.519 43.9268 198.519 44.0697V46.0442H197.728ZM203.498 41.5661H204.303V44.7147C204.301 45.0034 204.24 45.2519 204.119 45.4604C203.998 45.6674 203.829 45.827 203.612 45.9392C203.396 46.05 203.145 46.1054 202.857 46.1054C202.595 46.1054 202.359 46.0588 202.149 45.9655C201.94 45.8707 201.775 45.7308 201.653 45.5456C201.53 45.3605 201.469 45.1302 201.469 44.8547H202.276C202.277 44.9757 202.303 45.0799 202.354 45.1674C202.407 45.2548 202.479 45.3219 202.571 45.3685C202.663 45.4152 202.768 45.4385 202.888 45.4385C203.018 45.4385 203.128 45.4115 203.218 45.3576C203.309 45.3022 203.377 45.2206 203.424 45.1127C203.472 45.0048 203.497 44.8722 203.498 44.7147V41.5661ZM207.289 44.6317V42.6856H208.08V46.0442H207.313V45.4473H207.278C207.202 45.6353 207.077 45.7891 206.904 45.9086C206.732 46.0282 206.52 46.0879 206.267 46.0879C206.047 46.0879 205.853 46.0391 205.684 45.9414C205.516 45.8423 205.385 45.6987 205.29 45.5107C205.195 45.3212 205.148 45.0923 205.148 44.8241V42.6856H205.939V44.7016C205.939 44.9145 205.998 45.0835 206.114 45.2089C206.231 45.3343 206.384 45.397 206.574 45.397C206.69 45.397 206.803 45.3685 206.912 45.3117C207.022 45.2548 207.111 45.1703 207.181 45.058C207.253 44.9443 207.289 44.8022 207.289 44.6317ZM209.686 44.0763V46.0442H208.894V42.6856H209.651V43.2563H209.69C209.767 43.0682 209.89 42.9188 210.059 42.808C210.23 42.6973 210.441 42.6419 210.691 42.6419C210.923 42.6419 211.125 42.6914 211.297 42.7905C211.471 42.8897 211.605 43.0333 211.699 43.2213C211.796 43.4094 211.843 43.6375 211.842 43.9057V46.0442H211.05V44.0282C211.05 43.8037 210.992 43.628 210.875 43.5012C210.76 43.3744 210.6 43.311 210.396 43.311C210.258 43.311 210.135 43.3416 210.027 43.4028C209.92 43.4626 209.836 43.5493 209.775 43.663C209.715 43.7767 209.686 43.9145 209.686 44.0763ZM214.133 46.1098C213.796 46.1098 213.506 46.0398 213.261 45.8999C213.017 45.7585 212.83 45.5588 212.699 45.3007C212.567 45.0413 212.502 44.7359 212.502 44.3846C212.502 44.0391 212.567 43.7359 212.699 43.475C212.831 43.2126 213.016 43.0085 213.254 42.8627C213.492 42.7155 213.771 42.6419 214.092 42.6419C214.299 42.6419 214.494 42.6754 214.678 42.7424C214.863 42.808 215.026 42.9101 215.167 43.0486C215.31 43.187 215.422 43.3634 215.504 43.5777C215.586 43.7905 215.627 44.0442 215.627 44.3387V44.5814H212.874V44.0478H214.868C214.866 43.8962 214.834 43.7614 214.769 43.6433C214.705 43.5238 214.616 43.4298 214.5 43.3612C214.387 43.2927 214.254 43.2585 214.102 43.2585C213.941 43.2585 213.799 43.2978 213.676 43.3766C213.554 43.4538 213.458 43.5559 213.39 43.6827C213.323 43.808 213.288 43.9458 213.287 44.0959V44.5617C213.287 44.757 213.323 44.9247 213.394 45.0646C213.465 45.2031 213.565 45.3095 213.694 45.3838C213.822 45.4567 213.972 45.4932 214.144 45.4932C214.259 45.4932 214.363 45.4771 214.457 45.4451C214.55 45.4115 214.631 45.3627 214.699 45.2986C214.768 45.2344 214.82 45.155 214.855 45.0602L215.594 45.1433C215.547 45.3387 215.458 45.5092 215.327 45.655C215.197 45.7993 215.031 45.9115 214.828 45.9917C214.626 46.0704 214.394 46.1098 214.133 46.1098Z" fill="white"/>
<line x1="188.773" y1="100" x2="188.773" y2="62" stroke="#28A263" stroke-width="0.454552" stroke-dasharray="0.91 3.18"/>
<defs>
<filter id="filter0_d_108_4956" x="89.5998" y="78.0908" width="560.836" height="60.4999" filterUnits="userSpaceOnUse" color-interpolation-filters="sRGB">
<feFlood flood-opacity="0" result="BackgroundImageFix"/>
<feColorMatrix in="SourceAlpha" type="matrix" values="0 0 0 0 0 0 0 0 0 0 0 0 0 0 0 0 0 0 127 0" result="hardAlpha"/>
<feOffset dy="1.81821"/>
<feGaussianBlur stdDeviation="0.909105"/>
<feColorMatrix type="matrix" values="0 0 0 0 0.156863 0 0 0 0 0.635294 0 0 0 0 0.388235 0 0 0 0.18 0"/>
<feBlend mode="normal" in2="BackgroundImageFix" result="effect1_dropShadow_108_4956"/>
<feBlend mode="normal" in="SourceGraphic" in2="effect1_dropShadow_108_4956" result="shape"/>
</filter>
<filter id="filter1_d_108_4956" x="363.182" y="98" width="10.1179" height="10.0612" filterUnits="userSpaceOnUse" color-interpolation-filters="sRGB">
<feFlood flood-opacity="0" result="BackgroundImageFix"/>
<feColorMatrix in="SourceAlpha" type="matrix" values="0 0 0 0 0 0 0 0 0 0 0 0 0 0 0 0 0 0 127 0" result="hardAlpha"/>
<feOffset dy="1.81821"/>
<feGaussianBlur stdDeviation="0.909105"/>
<feColorMatrix type="matrix" values="0 0 0 0 0.156863 0 0 0 0 0.635294 0 0 0 0 0.388235 0 0 0 0.03 0"/>
<feBlend mode="normal" in2="BackgroundImageFix" result="effect1_dropShadow_108_4956"/>
<feBlend mode="normal" in="SourceGraphic" in2="effect1_dropShadow_108_4956" result="shape"/>
</filter>
<filter id="filter2_d_108_4956" x="184.182" y="100" width="10.1179" height="10.0612" filterUnits="userSpaceOnUse" color-interpolation-filters="sRGB">
<feFlood flood-opacity="0" result="BackgroundImageFix"/>
<feColorMatrix in="SourceAlpha" type="matrix" values="0 0 0 0 0 0 0 0 0 0 0 0 0 0 0 0 0 0 127 0" result="hardAlpha"/>
<feOffset dy="1.81821"/>
<feGaussianBlur stdDeviation="0.909105"/>
<feColorMatrix type="matrix" values="0 0 0 0 0.156863 0 0 0 0 0.635294 0 0 0 0 0.388235 0 0 0 0.03 0"/>
<feBlend mode="normal" in2="BackgroundImageFix" result="effect1_dropShadow_108_4956"/>
<feBlend mode="normal" in="SourceGraphic" in2="effect1_dropShadow_108_4956" result="shape"/>
</filter>
<filter id="filter3_d_108_4956" x="144.902" y="18.1893" width="89.2661" height="47.7356" filterUnits="userSpaceOnUse" color-interpolation-filters="sRGB">
<feFlood flood-opacity="0" result="BackgroundImageFix"/>
<feColorMatrix in="SourceAlpha" type="matrix" values="0 0 0 0 0 0 0 0 0 0 0 0 0 0 0 0 0 0 127 0" result="hardAlpha"/>
<feOffset dy="2.41421"/>
<feGaussianBlur stdDeviation="2.11243"/>
<feColorMatrix type="matrix" values="0 0 0 0 0.0117647 0 0 0 0 0.00784314 0 0 0 0 0.160784 0 0 0 0.07 0"/>
<feBlend mode="normal" in2="BackgroundImageFix" result="effect1_dropShadow_108_4956"/>
<feBlend mode="normal" in="SourceGraphic" in2="effect1_dropShadow_108_4956" result="shape"/>
</filter>
</defs>
</svg>
