<svg width="38" height="273" viewBox="0 0 38 273" fill="none" xmlns="http://www.w3.org/2000/svg">
<path d="M19 5L19 272" stroke="url(#paint0_linear_335_12257)" stroke-width="2" stroke-linecap="round"/>
<path d="M26.5 83.5L12.5 83.5" stroke="#9AE1BC" stroke-width="2" stroke-linecap="round"/>
<path d="M26.5 163.5L12.5 163.5" stroke="#9AE1BC" stroke-width="2" stroke-linecap="round"/>
<path d="M26.5 243.5L12.5 243.5" stroke="#9AE1BC" stroke-width="2" stroke-linecap="round"/>
<rect x="1" y="1" width="36" height="36" rx="18" fill="#2DDB81"/>
<rect x="1" y="1" width="36" height="36" rx="18" stroke="#17874D" stroke-width="2"/>
<path d="M14.1634 26V24.2869L18.7081 19.8317C19.1428 19.3928 19.505 19.0028 19.7947 18.6619C20.0845 18.321 20.3018 17.9908 20.4467 17.6712C20.5916 17.3516 20.6641 17.0107 20.6641 16.6484C20.6641 16.2351 20.5703 15.8814 20.3828 15.5874C20.1953 15.2891 19.9375 15.0589 19.6094 14.897C19.2812 14.7351 18.9084 14.6541 18.4908 14.6541C18.0604 14.6541 17.6832 14.7436 17.3594 14.9226C17.0355 15.0973 16.7841 15.3466 16.6051 15.6705C16.4304 15.9943 16.343 16.38 16.343 16.8274H14.0866C14.0866 15.9964 14.2763 15.2741 14.6555 14.6605C15.0348 14.0469 15.5568 13.5717 16.2216 13.2351C16.8906 12.8984 17.6577 12.7301 18.5227 12.7301C19.4006 12.7301 20.1719 12.8942 20.8366 13.2223C21.5014 13.5504 22.017 14 22.3835 14.571C22.7543 15.142 22.9396 15.794 22.9396 16.527C22.9396 17.017 22.8459 17.4986 22.6584 17.9716C22.4709 18.4446 22.1406 18.9687 21.6676 19.544C21.1989 20.1193 20.5405 20.8161 19.6925 21.6342L17.4361 23.929V24.0185H23.1378V26H14.1634Z" fill="white"/>
<defs>
<linearGradient id="paint0_linear_335_12257" x1="18" y1="5" x2="18" y2="272" gradientUnits="userSpaceOnUse">
<stop stop-color="#2DDB81" stop-opacity="0.5"/>
<stop offset="0.52" stop-color="#2BEE89"/>
<stop offset="1" stop-color="#2DDB81" stop-opacity="0.5"/>
</linearGradient>
</defs>
</svg>
