<svg width="66" height="66" viewBox="0 0 66 66" fill="none" xmlns="http://www.w3.org/2000/svg">
<rect x="5" y="5" width="56" height="56" rx="28" fill="#10281B"/>
<rect x="5" y="5" width="56" height="56" rx="28" stroke="#9AE1BC" stroke-width="10"/>
<path d="M21.3335 27.1666L30.8592 33.8346C31.6306 34.3746 32.0163 34.6446 32.4358 34.7492C32.8064 34.8415 33.194 34.8415 33.5645 34.7492C33.984 34.6446 34.3697 34.3746 35.1411 33.8346L44.6668 27.1666M26.9335 42.3333H39.0668C41.027 42.3333 42.0071 42.3333 42.7558 41.9518C43.4144 41.6163 43.9498 41.0808 44.2854 40.4223C44.6668 39.6736 44.6668 38.6935 44.6668 36.7333V29.2666C44.6668 27.3064 44.6668 26.3264 44.2854 25.5777C43.9498 24.9191 43.4144 24.3837 42.7558 24.0481C42.0071 23.6666 41.027 23.6666 39.0668 23.6666H26.9335C24.9733 23.6666 23.9932 23.6666 23.2445 24.0481C22.586 24.3837 22.0505 24.9191 21.715 25.5777C21.3335 26.3264 21.3335 27.3064 21.3335 29.2666V36.7333C21.3335 38.6935 21.3335 39.6736 21.715 40.4223C22.0505 41.0808 22.586 41.6163 23.2445 41.9518C23.9932 42.3333 24.9733 42.3333 26.9335 42.3333Z" stroke="#2DDB81" stroke-width="2" stroke-linecap="round" stroke-linejoin="round"/>
</svg>
