<svg width="430" height="220" viewBox="0 0 430 220" fill="none" xmlns="http://www.w3.org/2000/svg">
<path d="M536.208 321.007C536.278 278.877 528.053 237.159 512.002 198.234C495.951 159.309 472.388 123.94 442.659 94.1449C412.93 64.3502 377.617 40.7139 338.736 24.5855C299.855 8.45716 258.168 0.152561 216.054 0.145891C173.941 0.139219 132.226 8.43061 93.2909 24.5467C54.3561 40.6627 18.964 64.2878 -10.8645 94.0731C-40.6931 123.858 -64.374 159.22 -80.5552 198.14C-96.7364 237.06 -105.101 278.776 -105.171 320.905L131.498 320.943C131.516 309.905 133.707 298.975 137.947 288.778C142.186 278.581 148.391 269.316 156.206 261.513C164.021 253.709 173.294 247.519 183.495 243.297C193.696 239.074 204.625 236.902 215.659 236.904C226.692 236.906 237.614 239.081 247.801 243.307C257.988 247.533 267.24 253.725 275.029 261.531C282.818 269.338 288.992 278.605 293.197 288.803C297.402 299.001 299.557 309.931 299.539 320.969L536.208 321.007Z" fill="#2DDB81"/>
</svg>
