<svg width="787" height="38" viewBox="0 0 787 38" fill="none" xmlns="http://www.w3.org/2000/svg">
<path d="M1.5 18L785.5 18.0001" stroke="url(#paint0_linear_188_4204)" stroke-width="2" stroke-linecap="round"/>
<rect x="57.5" y="1" width="36" height="36" rx="18" fill="#2DDB81"/>
<rect x="57.5" y="1" width="36" height="36" rx="18" stroke="#17874D" stroke-width="2"/>
<path d="M76.9879 12.9091V26H74.6165V15.2166H74.5398L71.478 17.1726V14.9993L74.7315 12.9091H76.9879Z" fill="white"/>
<path d="M154.5 11.5V25.5" stroke="#9AE1BC" stroke-width="2" stroke-linecap="round"/>
<path d="M234.5 11.5V25.5" stroke="#9AE1BC" stroke-width="2" stroke-linecap="round"/>
<path d="M314.5 11.5V25.5" stroke="#9AE1BC" stroke-width="2" stroke-linecap="round"/>
<path d="M472.5 11.5V25.5" stroke="#9AE1BC" stroke-width="2" stroke-linecap="round"/>
<path d="M552.5 11.5V25.5" stroke="#9AE1BC" stroke-width="2" stroke-linecap="round"/>
<path d="M632.5 11.5V25.5" stroke="#9AE1BC" stroke-width="2" stroke-linecap="round"/>
<rect x="375.5" y="1" width="36" height="36" rx="18" fill="#2DDB81"/>
<rect x="375.5" y="1" width="36" height="36" rx="18" stroke="#17874D" stroke-width="2"/>
<path d="M388.663 26V24.2869L393.208 19.8317C393.643 19.3928 394.005 19.0028 394.295 18.6619C394.585 18.321 394.802 17.9908 394.947 17.6712C395.092 17.3516 395.164 17.0107 395.164 16.6484C395.164 16.2351 395.07 15.8814 394.883 15.5874C394.695 15.2891 394.438 15.0589 394.109 14.897C393.781 14.7351 393.408 14.6541 392.991 14.6541C392.56 14.6541 392.183 14.7436 391.859 14.9226C391.536 15.0973 391.284 15.3466 391.105 15.6705C390.93 15.9943 390.843 16.38 390.843 16.8274H388.587C388.587 15.9964 388.776 15.2741 389.156 14.6605C389.535 14.0469 390.057 13.5717 390.722 13.2351C391.391 12.8984 392.158 12.7301 393.023 12.7301C393.901 12.7301 394.672 12.8942 395.337 13.2223C396.001 13.5504 396.517 14 396.884 14.571C397.254 15.142 397.44 15.794 397.44 16.527C397.44 17.017 397.346 17.4986 397.158 17.9716C396.971 18.4446 396.641 18.9687 396.168 19.544C395.699 20.1193 395.04 20.8161 394.192 21.6342L391.936 23.929V24.0185H397.638V26H388.663Z" fill="white"/>
<rect x="694" y="1.5" width="35" height="35" rx="17.5" fill="#2DDB81"/>
<rect x="694" y="1.5" width="35" height="35" rx="17.5" stroke="white" stroke-width="3"/>
<path d="M711.362 26.179C710.441 26.179 709.623 26.0213 708.907 25.706C708.195 25.3906 707.633 24.9517 707.219 24.3892C706.806 23.8267 706.587 23.1768 706.561 22.4396H708.964C708.986 22.7933 709.103 23.1023 709.316 23.3665C709.529 23.6264 709.813 23.8288 710.166 23.9737C710.52 24.1186 710.916 24.1911 711.355 24.1911C711.824 24.1911 712.239 24.1101 712.602 23.9482C712.964 23.782 713.247 23.5518 713.452 23.2578C713.656 22.9638 713.756 22.625 713.752 22.2415C713.756 21.8452 713.654 21.4957 713.445 21.1932C713.237 20.8906 712.934 20.6541 712.538 20.4837C712.146 20.3132 711.673 20.228 711.119 20.228H709.962V18.3999H711.119C711.575 18.3999 711.973 18.321 712.314 18.1634C712.659 18.0057 712.93 17.7841 713.126 17.4986C713.322 17.2088 713.418 16.8743 713.413 16.495C713.418 16.1243 713.335 15.8026 713.164 15.5298C712.998 15.2528 712.761 15.0376 712.455 14.8842C712.152 14.7308 711.796 14.6541 711.387 14.6541C710.987 14.6541 710.616 14.7266 710.275 14.8714C709.934 15.0163 709.659 15.223 709.45 15.4915C709.241 15.7557 709.131 16.071 709.118 16.4375H706.836C706.853 15.7045 707.064 15.0611 707.469 14.5071C707.878 13.9489 708.423 13.5142 709.105 13.2031C709.787 12.8878 710.552 12.7301 711.4 12.7301C712.273 12.7301 713.032 12.8942 713.675 13.2223C714.323 13.5462 714.824 13.983 715.178 14.5327C715.531 15.0824 715.708 15.6896 715.708 16.3544C715.712 17.0916 715.495 17.7095 715.056 18.2081C714.621 18.7067 714.05 19.0327 713.343 19.1861V19.2884C714.263 19.4162 714.969 19.7571 715.459 20.3111C715.953 20.8608 716.198 21.5447 716.194 22.3629C716.194 23.0959 715.985 23.7521 715.567 24.3317C715.154 24.907 714.583 25.3587 713.854 25.6868C713.13 26.0149 712.299 26.179 711.362 26.179Z" fill="white"/>
<defs>
<linearGradient id="paint0_linear_188_4204" x1="1.5" y1="19" x2="785.5" y2="19.0001" gradientUnits="userSpaceOnUse">
<stop stop-color="#2DDB81" stop-opacity="0.5"/>
<stop offset="0.52" stop-color="#2BEE89"/>
<stop offset="1" stop-color="#2DDB81" stop-opacity="0.5"/>
</linearGradient>
</defs>
</svg>
