<svg width="80" height="80" viewBox="0 0 80 80" fill="none" xmlns="http://www.w3.org/2000/svg">
<path d="M40 66.5315H77.1429M40 66.5315C40 67.5768 39.7941 68.6119 39.3941 69.5776C38.9941 70.5434 38.4077 71.4209 37.6686 72.16C36.9294 72.8992 36.0519 73.4855 35.0862 73.8855C34.1204 74.2856 33.0853 74.4915 32.04 74.4915C30.9947 74.4915 29.9596 74.2856 28.9938 73.8855C28.0281 73.4855 27.1506 72.8992 26.4114 72.16C25.6723 71.4209 25.0859 70.5434 24.6859 69.5776C24.2859 68.6119 24.08 67.5768 24.08 66.5315C24.08 65.4861 24.2859 64.4511 24.6859 63.4853C25.0859 62.5196 25.6723 61.642 26.4114 60.9029C27.1506 60.1637 28.0281 59.5774 28.9938 59.1774C29.9596 58.7774 30.9947 58.5715 32.04 58.5715C33.0853 58.5715 34.1204 58.7774 35.0862 59.1774C36.0519 59.5774 36.9294 60.1637 37.6686 60.9029C38.4077 61.642 38.9941 62.5196 39.3941 63.4853C39.7941 64.4511 40 65.4861 40 66.5315ZM77.1429 66.5315L66.5314 55.92M77.1429 66.5315L66.5314 77.1429M18.7771 10.8172C18.7771 12.9283 19.6158 14.953 21.1086 16.4457C22.6014 17.9385 24.626 18.7772 26.7371 18.7772C28.8483 18.7772 30.8729 17.9385 32.3657 16.4457C33.8585 14.953 34.6971 12.9283 34.6971 10.8172C34.6971 8.70605 33.8585 6.6814 32.3657 5.18861C30.8729 3.69582 28.8483 2.85718 26.7371 2.85718C24.626 2.85718 22.6014 3.69582 21.1086 5.18861C19.6158 6.6814 18.7771 8.70605 18.7771 10.8172ZM40 37.3486C40 39.4597 40.8386 41.4844 42.3314 42.9772C43.8242 44.47 45.8489 45.3086 47.96 45.3086C50.0711 45.3086 52.0958 44.47 53.5886 42.9772C55.0814 41.4844 55.92 39.4597 55.92 37.3486C55.92 35.2375 55.0814 33.2128 53.5886 31.72C52.0958 30.2272 50.0711 29.3886 47.96 29.3886C45.8489 29.3886 43.8242 30.2272 42.3314 31.72C40.8386 33.2128 40 35.2375 40 37.3486Z" stroke="#2DDB81" stroke-width="5.71429" stroke-linecap="round" stroke-linejoin="round"/>
<path d="M40 37.3486H17.4514C13.6315 37.4242 9.99362 38.9947 7.31889 41.7229C4.64415 44.4511 3.14592 48.1194 3.14592 51.94C3.14592 55.7606 4.64415 59.4289 7.31889 62.1571C9.99362 64.8853 13.6315 66.4558 17.4514 66.5314H24.08M55.92 37.3486H63.88C67.3983 37.3486 70.7725 35.9509 73.2603 33.4631C75.7481 30.9753 77.1457 27.6011 77.1457 24.0829C77.1457 20.5646 75.7481 17.1904 73.2603 14.7026C70.7725 12.2148 67.3983 10.8171 63.88 10.8171H34.6857M18.7771 10.8171H2.85715" stroke="#2DDB81" stroke-width="5.71429" stroke-linecap="round" stroke-linejoin="round"/>
</svg>
